<?xml version="1.0" encoding="UTF-8"?>
<svg xmlns="http://www.w3.org/2000/svg" xmlns:xlink="http://www.w3.org/1999/xlink" version="1.2" >
<font id="Intro Regular 3">
<font-face  font-family="Intro" units-per-em="1000" ascent="750" descent="-250" font-style="normal" font-weight="400" font-stretch="normal" cap-height="700" x-height="482" underline-position="-75" underline-thickness="50" />
<missing-glyph  horiz-adv-x="219" d="" />
<glyph glyph-name="&amp;#x20;" unicode="&#x20;" horiz-adv-x="259" d="" />
<glyph glyph-name="&amp;#xa0;" unicode="&#xa0;" horiz-adv-x="259" d="" />
<glyph glyph-name="C" unicode="C" horiz-adv-x="762" d="M50 350 C50 130 209 -8 404 -8 C544 -8 679 67 719 224 L638 224 C601 123 510 69 403 69 C242 69 135 192 135 350 C135 513 243 634 404 631 C505 631 591 584 634 489 L715 489 C673 635 539 708 404 708 C207 711 50 569 50 350 L50 350 Z " />
<glyph glyph-name="D" unicode="D" horiz-adv-x="732" d="M93 700 L93 0 L341 0 C555 0 681 155 681 351 C681 543 555 700 341 700 L93 700 Z M177 76 L177 623 L339 623 C499 623 598 505 598 350 C598 193 499 76 339 76 L177 76 Z " />
<glyph glyph-name="E" unicode="E" horiz-adv-x="569" d="M500 700 L93 700 L93 0 L511 0 L511 77 L177 77 L177 325 L489 325 L489 398 L177 398 L177 627 L500 627 L500 700 Z " />
<glyph glyph-name="F" unicode="F" horiz-adv-x="550" d="M482 369 L177 369 L177 626 L509 626 L509 700 L93 700 L93 0 L177 0 L177 295 L482 295 L482 369 Z " />
<glyph glyph-name="G" unicode="G" horiz-adv-x="777" d="M50 351 C50 134 201 -10 399 -10 C540 -10 657 57 709 186 C732 242 739 304 736 368 L410 368 L410 297 L659 297 C646 145 543 68 399 68 C236 68 134 188 134 351 C134 510 236 634 399 634 C504 634 591 601 628 500 L710 500 C670 646 536 710 399 710 C204 710 50 568 50 351 L50 351 Z " />
<glyph glyph-name="H" unicode="H" horiz-adv-x="723" d="M630 0 L630 700 L546 700 L546 405 L176 405 L176 700 L93 700 L93 0 L176 0 L176 328 L546 328 L546 0 L630 0 Z " />
<glyph glyph-name="I" unicode="I" horiz-adv-x="400" d="M242 67 L242 634 L355 634 L355 700 L45 700 L45 634 L158 634 L158 67 L37 67 L37 0 L363 0 L363 67 L242 67 Z " />
<glyph glyph-name="J" unicode="J" horiz-adv-x="639" d="M553 700 L298 700 L298 626 L469 626 L469 236 C469 127 395 66 290 66 C185 66 113 125 113 236 L113 308 L34 308 L34 235 C34 83 142 -10 290 -10 C438 -10 553 80 553 235 L553 700 Z " />
<glyph glyph-name="M" unicode="M" horiz-adv-x="827" d="M414 310 L126 701 L93 701 L93 0 L177 0 L177 505 L407 189 L420 189 L650 505 L650 0 L734 0 L734 701 L702 701 L414 310 Z " />
<glyph glyph-name="L" unicode="L" horiz-adv-x="523" d="M177 700 L93 700 L93 0 L507 0 L507 75 L177 75 L177 700 Z " />
<glyph glyph-name="K" unicode="K" horiz-adv-x="666" d="M176 700 L93 700 L93 0 L176 0 L176 310 C215 310 293 312 330 323 L552 0 L647 0 L647 12 L403 357 C452 400 476 473 497 545 C518 618 549 652 628 643 L628 699 C497 723 450 662 423 569 C405 503 379 426 335 400 C304 381 243 380 176 380 L176 700 Z " />
<glyph glyph-name="Z" unicode="Z" horiz-adv-x="584" d="M548 700 L48 700 L48 626 L417 626 L21 11 L21 0 L549 0 L549 76 L152 76 L548 687 L548 700 Z " />
<glyph glyph-name="Y" unicode="Y" horiz-adv-x="628" d="M313 366 L212 537 L110 700 L19 700 L19 689 L272 287 L272 0 L356 0 L356 287 L608 688 L608 700 L519 700 L417 536 L316 366 L313 366 Z " />
<glyph glyph-name="X" unicode="X" horiz-adv-x="632" d="M316 423 L219 570 L128 700 L38 700 L38 688 L266 369 L12 12 L12 0 L104 0 L221 166 L315 310 L318 310 L414 164 L530 0 L621 0 L621 11 L367 369 L595 689 L595 700 L506 700 L416 572 L318 423 L316 423 Z " />
<glyph glyph-name="W" unicode="W" horiz-adv-x="965" d="M462 687 L283 143 L282 143 L202 441 L122 700 L33 700 L33 687 L251 -4 L309 -4 L482 510 L483 510 L658 -4 L716 -4 L931 689 L931 700 L844 700 C816 613 791 530 764 442 L688 143 L686 143 L503 687 L462 687 Z " />
<glyph glyph-name="V" unicode="V" horiz-adv-x="662" d="M333 143 L332 143 L231 405 L110 700 L21 700 L21 688 L314 -3 L349 -3 L640 688 L640 700 L551 700 L431 405 L333 143 Z " />
<glyph glyph-name="U" unicode="U" horiz-adv-x="707" d="M355 -9 C506 -9 621 81 621 238 L621 700 L539 700 L539 239 C539 128 461 66 355 66 C248 66 170 128 170 239 L170 700 L86 700 L86 238 C86 81 203 -9 355 -9 L355 -9 Z " />
<glyph glyph-name="T" unicode="T" horiz-adv-x="549" d="M234 625 L234 0 L315 0 L315 625 L531 625 L531 700 L18 700 L18 625 L234 625 Z " />
<glyph glyph-name="S" unicode="S" horiz-adv-x="646" d="M47 191 C52 47 198 -15 328 -12 C455 -9 599 45 599 195 C599 350 469 375 330 391 C245 402 144 406 144 510 C144 602 240 634 317 637 C397 637 491 609 499 520 L577 520 C572 656 436 715 315 712 C192 712 61 647 61 509 C61 369 189 336 316 323 C411 310 517 308 517 195 C514 93 411 64 327 61 C241 61 133 97 128 191 L47 191 Z " />
<glyph glyph-name="R" unicode="R" horiz-adv-x="672" d="M444 268 C542 292 611 368 611 476 C611 603 516 701 372 701 L93 701 L93 0 L177 0 L177 257 L360 257 L554 0 L642 0 L642 12 L444 268 Z M176 326 L176 627 L372 627 C463 627 530 567 530 477 C530 386 461 326 372 326 L176 326 Z " />
<glyph glyph-name="Q" unicode="Q" horiz-adv-x="809" d="M750 6 L680 114 C731 174 760 255 760 351 C760 572 601 714 405 714 C196 714 50 563 50 351 C50 136 206 -9 402 -9 C486 -9 562 17 625 64 L672 -6 L750 -6 L750 6 Z M134 351 C134 530 253 637 405 637 C558 637 677 531 677 351 C677 175 558 65 405 65 C253 65 134 168 134 351 L134 351 Z " />
<glyph glyph-name="P" unicode="P" horiz-adv-x="650" d="M176 1 L176 223 L373 223 C521 223 618 328 618 461 C618 595 523 701 373 701 C281 702 185 701 93 701 L93 1 L176 1 Z M175 298 L175 627 C242 627 309 628 373 627 C469 627 537 558 537 463 C537 366 466 298 373 298 L175 298 Z " />
<glyph glyph-name="N" unicode="N" horiz-adv-x="746" d="M626 -1 L653 -1 L653 701 L569 701 L569 373 L578 172 L122 702 L93 702 L93 0 L176 0 L176 337 L169 529 L626 -1 Z " />
<glyph glyph-name="O" unicode="O" horiz-adv-x="810" d="M760 350 C760 572 601 712 405 712 C209 712 50 574 50 350 C50 127 207 -11 404 -11 C615 -11 760 138 760 350 L760 350 Z M134 350 C134 522 253 636 405 636 C560 636 676 520 676 350 C676 180 558 66 404 66 C251 66 134 180 134 350 L134 350 Z " />
<glyph glyph-name="a" unicode="a" horiz-adv-x="544" d="M400 87 C400 -1 438 -16 518 -3 L517 48 C458 40 461 71 461 124 L461 325 C464 451 359 493 250 493 C186 493 125 481 78 457 L91 395 C132 419 183 430 238 430 C304 430 390 408 390 327 L390 268 C342 295 279 308 224 308 C124 308 37 251 40 141 C43 44 121 -8 210 -8 C283 -8 365 20 400 87 L400 87 Z M389 163 C373 91 287 59 224 59 C170 59 120 83 117 144 C114 213 173 248 237 248 C286 248 345 234 389 209 L389 163 Z " />
<glyph glyph-name="b" unicode="b" horiz-adv-x="579" d="M73 29 C135 3 204 -12 270 -12 C410 -12 533 56 533 238 C533 398 425 489 302 491 C252 492 200 479 151 450 L151 731 L73 731 L73 29 Z M149 378 C194 410 244 426 291 425 C379 424 455 364 455 238 C455 109 372 58 275 56 C234 55 190 64 149 79 L149 378 Z " />
<glyph glyph-name="c" unicode="c" horiz-adv-x="566" d="M523 335 C493 440 398 493 300 494 C174 495 44 411 44 243 C44 77 172 -8 298 -8 C399 -8 499 48 528 162 L452 162 C426 94 363 61 299 61 C212 61 123 124 123 243 C123 363 215 424 303 424 C364 424 422 395 448 335 L523 335 Z " />
<glyph glyph-name="d" unicode="d" horiz-adv-x="601" d="M441 81 C441 -1 486 -15 564 -2 L563 55 C494 47 506 94 506 159 L506 732 L428 732 L428 441 C379 474 327 489 277 489 C153 490 45 397 45 242 C45 107 123 -9 267 -9 C344 -8 408 30 441 103 L441 81 Z M430 221 C427 134 370 61 278 61 C174 61 124 146 124 242 C124 357 196 419 284 420 C331 421 383 404 430 369 L430 221 Z " />
<glyph glyph-name="e" unicode="e" horiz-adv-x="554" d="M292 493 C160 493 50 406 45 254 C40 90 153 -11 313 -11 C372 -11 433 3 490 30 L478 89 C422 66 370 54 315 54 C206 54 118 122 123 233 L506 233 C533 392 456 492 292 493 L292 493 Z M292 431 C378 431 445 384 440 293 L126 293 C139 380 204 431 292 431 L292 431 Z " />
<glyph glyph-name="f" unicode="f" horiz-adv-x="390" d="M127 0 L205 0 L205 418 L380 418 L380 478 L205 478 L205 564 C205 691 302 694 398 654 L409 712 C264 768 128 739 128 559 L128 478 L24 478 L24 418 L127 418 L127 0 Z " />
<glyph glyph-name="g" unicode="g" horiz-adv-x="576" d="M427 -40 C427 -157 358 -200 275 -201 C215 -202 148 -181 93 -151 L80 -213 C142 -248 212 -267 276 -267 C399 -267 503 -199 503 -34 L503 445 C443 472 379 489 311 489 C162 489 46 408 46 239 C46 75 148 -18 273 -14 C322 -13 375 3 427 36 L427 -40 Z M426 104 C380 70 331 53 286 53 C197 52 124 116 124 240 C124 363 209 423 309 423 C348 423 387 415 426 400 L426 104 Z " />
<glyph glyph-name="h" unicode="h" horiz-adv-x="584" d="M514 0 L514 284 C514 409 452 493 320 494 C245 494 198 472 155 419 L155 731 L76 731 L76 0 L155 0 L155 281 C155 370 213 430 300 429 C384 429 435 376 434 284 L434 0 L514 0 Z " />
<glyph glyph-name="i" unicode="i" horiz-adv-x="234" d="M68 641 C68 574 167 574 167 641 C167 707 68 707 68 641 L68 641 Z M156 478 L78 478 L78 0 L156 0 L156 478 Z " />
<glyph glyph-name="j" unicode="j" horiz-adv-x="234" d="M78 480 L78 -56 C78 -152 63 -208 -44 -189 L-46 -250 C99 -277 155 -209 155 -57 L156 480 L78 480 Z M67 641 C67 574 166 574 166 641 C166 707 67 707 67 641 L67 641 Z " />
<glyph glyph-name="k" unicode="k" horiz-adv-x="534" d="M155 283 L155 731 L76 731 L76 0 L155 0 L155 219 L218 219 C239 219 259 221 277 225 L426 0 L507 0 L507 9 L345 249 C451 290 484 373 484 483 L409 483 C409 344 351 283 219 283 L155 283 Z " />
<glyph glyph-name="l" unicode="l" horiz-adv-x="275" d="M71 733 L71 174 C71 25 127 -26 274 -2 L271 60 C170 47 150 80 150 174 L150 733 L71 733 Z " />
<glyph glyph-name="m" unicode="m" horiz-adv-x="896" d="M825 0 L825 287 C825 398 787 492 658 492 C578 492 505 459 474 388 C455 456 405 492 325 492 C256 492 197 470 162 406 C162 501 102 495 34 484 L35 427 C86 432 91 413 91 349 L91 0 L169 0 L169 280 C169 368 220 427 304 427 C388 427 416 364 416 283 L416 0 L494 0 L494 281 C494 367 556 427 636 427 C717 427 745 364 745 287 L745 0 L825 0 Z " />
<glyph glyph-name="n" unicode="n" horiz-adv-x="598" d="M528 0 L528 286 C528 404 462 492 335 492 C267 492 208 475 165 410 C165 503 91 491 35 483 L36 421 C87 426 92 409 92 344 L92 0 L170 0 L170 289 C170 370 232 427 314 427 C393 427 449 373 449 286 L449 0 L528 0 Z " />
<glyph glyph-name="o" unicode="o" horiz-adv-x="598" d="M553 242 C553 577 45 577 45 242 C45 -93 553 -91 553 242 L553 242 Z M124 242 C124 487 475 487 475 242 C475 -4 124 -4 124 242 L124 242 Z " />
<glyph glyph-name="p" unicode="p" horiz-adv-x="597" d="M157 402 C160 478 108 496 32 483 L33 425 C97 433 90 383 90 321 L90 -248 L168 -248 L168 44 C340 -72 551 29 551 244 C551 382 474 495 333 495 C264 495 202 475 157 402 L157 402 Z M166 264 C169 347 226 424 318 424 C426 424 471 340 471 244 C471 67 297 13 166 115 L166 264 Z " />
<glyph glyph-name="q" unicode="q" horiz-adv-x="579" d="M506 453 C444 478 375 494 309 494 C168 494 43 426 46 243 C48 86 152 -7 275 -7 C324 -7 377 8 427 40 L427 -251 L506 -251 L506 453 Z M429 111 C385 78 337 62 292 61 C203 60 127 122 125 243 C125 377 210 432 311 430 C349 429 390 420 429 405 L429 111 Z " />
<glyph glyph-name="r" unicode="r" horiz-adv-x="433" d="M163 418 C160 492 107 500 32 487 L33 435 C90 440 91 413 91 369 L91 0 L168 0 L168 300 C168 376 232 428 301 428 C338 428 372 416 403 396 L422 462 C389 486 351 498 309 498 C245 498 190 477 163 418 L163 418 Z " />
<glyph glyph-name="s" unicode="s" horiz-adv-x="509" d="M40 136 C48 26 149 -12 254 -12 C366 -9 466 39 466 138 C469 252 363 266 262 279 C173 292 128 304 127 351 C124 407 192 430 253 430 C316 430 378 406 378 354 L453 354 C456 447 353 492 253 492 C153 492 50 449 53 349 C56 249 160 229 255 218 C344 205 390 193 390 138 C387 79 321 51 254 51 C189 51 121 75 116 136 L40 136 Z " />
<glyph glyph-name="t" unicode="t" horiz-adv-x="421" d="M204 630 L139 630 L131 480 L23 480 L23 428 L126 423 L126 185 C126 3 240 -44 405 9 L396 72 C280 29 204 64 204 187 L204 423 L381 423 L381 480 L204 480 L204 630 Z " />
<glyph glyph-name="u" unicode="u" horiz-adv-x="587" d="M417 482 L417 202 C417 112 358 56 274 56 C194 56 148 113 149 201 L149 482 L70 482 L70 201 C70 82 122 -8 251 -8 C324 -8 386 8 423 75 C418 -9 478 -14 553 -1 L552 53 C502 48 495 58 495 129 L495 482 L417 482 Z " />
<glyph glyph-name="v" unicode="v" horiz-adv-x="532" d="M283 -4 L511 473 L511 482 L427 482 L348 304 L268 114 L188 301 L106 482 L21 482 L21 473 L250 -4 L283 -4 Z " />
<glyph glyph-name="w" unicode="w" horiz-adv-x="758" d="M249 -4 L380 320 L507 -4 L543 -4 L733 473 L733 482 L648 482 C625 418 601 356 578 292 L526 136 L525 136 L394 470 L363 470 L234 136 L232 136 L181 292 L110 482 L26 482 L26 473 L214 -4 L249 -4 Z " />
<glyph glyph-name="x" unicode="x" horiz-adv-x="492" d="M247 208 L323 99 L396 0 L472 0 L472 9 L292 252 L457 473 L457 482 L379 482 L316 399 L250 301 L248 301 L187 395 L124 482 L43 482 L43 474 L202 256 L16 9 L16 0 L94 0 L172 102 L245 208 L247 208 Z " />
<glyph glyph-name="y" unicode="y" horiz-adv-x="547" d="M518 473 L518 481 L439 481 L351 265 L278 76 L277 76 L198 267 L102 481 L19 481 L19 473 L240 -4 L212 -72 C180 -152 142 -212 50 -169 L39 -227 C197 -296 252 -163 306 -34 L518 473 Z " />
<glyph glyph-name="z" unicode="z" horiz-adv-x="461" d="M424 482 L45 482 L45 414 L303 414 L30 10 L30 0 L422 0 L422 69 L155 69 L424 471 L424 482 Z " />
<glyph glyph-name="zero" unicode="0" horiz-adv-x="658" d="M330 710 C185 710 71 619 71 469 L71 229 C71 78 185 -12 330 -12 C473 -12 587 78 587 229 L587 469 C587 619 473 710 330 710 L330 710 Z M330 61 C247 61 182 102 161 174 C154 195 150 220 150 249 L150 449 C150 478 154 503 161 524 C182 596 247 638 330 638 C410 638 477 596 498 524 C505 503 509 478 509 449 L509 249 C509 220 505 195 498 174 C477 102 410 61 330 61 L330 61 Z " />
<glyph glyph-name="one" unicode="1" horiz-adv-x="432" d="M185 634 L185 66 L47 66 L47 0 L403 0 L403 66 L264 66 L264 700 L63 700 L63 634 L185 634 Z " />
<glyph glyph-name="two" unicode="2" horiz-adv-x="542" d="M266 638 C425 638 420 483 335 379 L46 18 L46 0 L487 0 L487 74 L182 74 L410 355 C461 419 477 489 470 549 C462 638 392 710 268 710 C133 710 66 642 59 517 L129 517 C136 601 182 638 266 638 L266 638 Z " />
<glyph glyph-name="three" unicode="3" horiz-adv-x="576" d="M48 188 C59 62 154 -12 278 -12 C428 -12 520 85 520 219 C520 332 433 428 317 425 L519 687 L519 700 L79 700 L79 629 L390 629 L198 381 L198 362 C316 393 441 343 441 219 C440 119 374 61 277 61 C193 61 132 103 121 188 L48 188 Z " />
<glyph glyph-name="four" unicode="4" horiz-adv-x="588" d="M467 147 L539 147 L539 215 L467 215 L467 690 L385 690 L30 183 L30 147 L391 147 L391 -10 L467 -10 L467 147 Z M399 596 L396 388 L396 212 L130 212 L398 596 L399 596 Z " />
<glyph glyph-name="five" unicode="5" horiz-adv-x="580" d="M155 625 L489 625 L489 700 L79 700 L79 362 C126 377 189 384 253 384 C352 384 448 349 448 220 C448 101 359 63 288 63 C208 63 148 105 139 182 L60 182 C71 55 168 -11 289 -11 C435 -11 530 81 530 222 C535 394 402 457 262 457 C225 457 190 453 155 444 L155 625 Z " />
<glyph glyph-name="six" unicode="6" horiz-adv-x="587" d="M305 703 L82 362 C53 319 39 271 39 220 C39 70 153 -9 293 -9 C433 -9 549 70 549 220 C549 364 441 447 305 444 C274 444 243 437 216 421 L397 703 L305 703 Z M293 63 C197 63 121 120 121 220 C121 321 196 378 292 378 C390 378 466 321 466 220 C466 120 390 63 293 63 L293 63 Z " />
<glyph glyph-name="seven" unicode="7" horiz-adv-x="517" d="M504 700 L37 700 L37 626 L391 626 L97 0 L182 0 L504 688 L504 700 Z " />
<glyph glyph-name="eight" unicode="8" horiz-adv-x="618" d="M423 391 C479 418 521 465 521 533 C521 639 430 710 309 710 C188 710 99 638 99 532 C100 464 141 417 194 392 C115 363 54 301 54 204 C54 67 164 -10 309 -10 C455 -10 564 77 564 204 C563 303 503 360 423 391 L423 391 Z M309 418 C238 418 173 458 173 530 C173 602 240 643 309 643 C381 643 446 602 446 531 C446 459 380 418 309 418 L309 418 Z M309 60 C219 60 136 114 136 206 C136 299 217 354 309 354 C400 354 483 300 483 207 C483 114 400 60 309 60 L309 60 Z " />
<glyph glyph-name="nine" unicode="9" horiz-adv-x="586" d="M282 0 L503 342 C534 387 548 430 549 486 C549 637 433 715 294 715 C154 715 38 637 38 486 C38 342 145 259 284 262 C315 262 348 270 375 285 L190 0 L282 0 Z M294 643 C390 643 467 586 467 486 C467 385 391 328 295 328 C198 328 121 385 121 486 C121 586 197 643 294 643 L294 643 Z " />
<glyph glyph-name="ampersand" unicode="&#x26;" horiz-adv-x="651" d="M525 556 C530 664 439 715 318 715 C202 715 99 658 99 536 C99 469 134 417 198 397 C109 368 54 305 54 206 C54 81 153 -15 308 -15 C459 -15 541 66 541 226 L541 356 L613 356 L613 423 L467 423 L467 227 C467 106 404 56 308 56 C213 56 137 117 137 208 C137 308 207 349 297 357 C310 358 323 358 335 358 L335 423 C238 423 177 456 177 536 C177 617 252 645 317 645 C382 645 452 623 452 556 L525 556 Z " />
<glyph glyph-name="less" unicode="&#x3c;" horiz-adv-x="533" d="M50 318 L445 138 L445 213 L142 347 L445 475 L445 550 L50 377 L50 318 Z " />
<glyph glyph-name="greater" unicode="&#x3e;" horiz-adv-x="533" d="M483 377 L88 550 L88 479 L391 347 L88 209 L88 138 L483 318 L483 377 Z " />
<glyph glyph-name="hyphen" unicode="&#x2d;" horiz-adv-x="461" d="M68 299 L393 299 L393 368 L68 368 L68 299 Z " />
<glyph glyph-name="slash" unicode="&#x2f;" horiz-adv-x="481" d="M31 1 L113 1 L451 700 L369 700 L31 1 Z " />
<glyph glyph-name="backslash" unicode="&#x5c;" horiz-adv-x="481" d="M112 700 L30 700 L368 1 L450 1 L112 700 Z " />
<glyph glyph-name="bar" unicode="&#x7c;" horiz-adv-x="244" d="M86 702 L86 -80 L158 -80 L158 702 L86 702 Z " />
<glyph glyph-name="dollar" unicode="&#x24;" horiz-adv-x="643" d="M289 710 C174 699 60 637 60 509 C60 378 170 342 289 326 L289 65 C213 73 132 110 127 191 L46 191 C51 62 171 1 289 -10 L289 -79 L357 -79 L357 -10 C473 1 599 65 599 195 C599 340 483 369 357 388 L357 633 C424 625 494 590 499 516 L578 516 C573 638 465 696 357 709 L357 778 L289 778 L289 710 Z M515 195 C515 112 433 73 357 65 L357 318 C441 304 515 283 515 195 L515 195 Z M143 510 C143 589 220 627 289 635 L289 397 C220 408 143 427 143 510 L143 510 Z " />
<glyph glyph-name="quotedbl" unicode="&#x22;" horiz-adv-x="362" d="M75 700 L75 477 L140 477 L150 700 L75 700 Z M218 700 L218 477 L282 477 L292 700 L218 700 Z " />
<glyph glyph-name="quotesingle" unicode="&#x27;" horiz-adv-x="221" d="M75 700 L75 477 L141 477 L151 700 L75 700 Z " />
<glyph glyph-name="plus" unicode="&#x2b;" horiz-adv-x="473" d="M59 335 L204 335 L204 191 L269 191 L269 335 L414 335 L414 397 L269 397 L269 542 L204 542 L204 397 L59 397 L59 335 Z " />
<glyph glyph-name="endash" unicode="&#x2013;" horiz-adv-x="545" d="M68 299 L477 299 L477 368 L68 368 L68 299 Z " />
<glyph glyph-name="emdash" unicode="&#x2014;" horiz-adv-x="633" d="M68 299 L565 299 L565 368 L68 368 L68 299 Z " />
<glyph glyph-name="brokenbar" unicode="&#xa6;" horiz-adv-x="246" d="M87 702 L87 394 L159 394 L159 702 L87 702 Z M87 298 L87 -14 L159 -14 L159 298 L87 298 Z " />
<glyph glyph-name="equal" unicode="&#x3d;" horiz-adv-x="533" d="M74 220 L459 220 L459 286 L74 286 L74 220 Z M74 377 L459 377 L459 443 L74 443 L74 377 Z " />
<glyph glyph-name="underscore" unicode="&#x5f;" horiz-adv-x="616" d="M67 -81 L549 -81 L549 -13 L67 -13 L67 -81 Z " />
<glyph glyph-name="minus" unicode="&#x2212;" horiz-adv-x="533" d="M74 319 L459 319 L459 388 L74 388 L74 319 Z " />
<glyph glyph-name="logicalnot" unicode="&#xac;" horiz-adv-x="559" d="M74 308 L416 308 L416 136 L481 136 L481 377 L74 377 L74 308 Z " />
<glyph glyph-name="OE" unicode="&#x152;" horiz-adv-x="928" d="M869 1 L869 71 L572 71 L572 331 L848 331 L848 399 L572 399 L572 629 L864 629 L864 699 L516 699 C480 707 443 710 410 710 C201 710 51 578 51 349 C51 124 197 -13 403 -13 C439 -13 475 -8 512 1 L869 1 Z M132 349 C132 525 240 641 411 641 C440 640 469 637 500 630 L500 66 C470 57 440 53 410 53 C239 53 132 173 132 349 L132 349 Z " />
<glyph glyph-name="AE" unicode="&#xc6;" horiz-adv-x="825" d="M191 200 L403 200 L403 0 L766 0 L766 73 L476 73 L476 327 L745 327 L745 398 L476 398 L476 624 L761 624 L761 698 L364 698 L8 12 L8 0 L89 0 L191 200 Z M405 623 L406 623 L403 270 L219 270 L405 623 Z " />
<glyph glyph-name="Oslash" unicode="&#xd8;" horiz-adv-x="808" d="M683 741 L683 749 L602 749 L560 675 C511 699 457 710 404 710 C208 710 51 572 51 349 C51 212 108 116 192 57 L131 -44 L131 -52 L212 -52 L256 21 C302 0 351 -11 404 -11 C599 -11 758 127 758 349 C758 485 702 579 621 638 L683 741 Z M574 565 C634 522 674 450 674 349 C674 180 557 69 405 69 C366 69 330 77 295 94 L574 565 Z M239 128 C176 172 134 245 134 349 C134 519 252 629 404 629 C445 629 484 620 520 603 L239 128 Z " />
<glyph glyph-name="exclam" unicode="&#x21;" horiz-adv-x="255" d="M127 -13 C155 -13 177 6 177 33 C177 61 155 79 127 79 C100 79 79 61 79 33 C79 6 100 -13 127 -13 L127 -13 Z M90 147 L166 147 L171 700 L84 700 L90 147 Z " />
<glyph glyph-name="question" unicode="&#x3f;" horiz-adv-x="492" d="M276 148 C268 354 454 357 454 513 C454 637 363 704 248 704 C137 704 45 649 37 521 L113 521 C124 595 184 633 249 630 C317 627 370 584 370 517 C370 366 197 389 201 148 L276 148 Z M241 -13 C269 -13 290 6 290 34 C290 62 269 80 241 80 C213 80 191 62 191 34 C191 6 213 -13 241 -13 L241 -13 Z " />
<glyph glyph-name="comma" unicode="&#x2c;" horiz-adv-x="236" d="M167 30 C168 33 167 39 166 46 C159 67 141 80 118 80 C90 80 69 62 69 34 C69 11 84 -4 104 -11 L82 -89 L131 -89 L161 6 C164 15 166 23 167 30 L167 30 Z " />
<glyph glyph-name="period" unicode="&#x2e;" horiz-adv-x="239" d="M119 -9 C148 -9 171 11 171 38 C171 69 148 86 119 86 C91 86 68 69 68 38 C68 11 91 -9 119 -9 L119 -9 Z " />
<glyph glyph-name="periodcentered" unicode="&#xb7;" horiz-adv-x="238" d="M119 311 C147 311 170 330 170 358 C170 387 147 406 119 406 C91 406 68 387 68 358 C68 330 91 311 119 311 L119 311 Z " />
<glyph glyph-name="quotedblbase" unicode="&#x201e;" horiz-adv-x="405" d="M167 30 C167 35 166 39 165 46 C160 67 141 80 118 80 C90 80 69 62 69 34 C69 11 84 -4 104 -11 L82 -83 L132 -83 C141 -54 150 -25 161 6 C164 14 164 21 167 30 L167 30 Z M336 30 C337 33 336 39 335 46 C328 67 311 80 288 80 C260 80 238 62 238 34 C238 11 253 -4 274 -11 L252 -83 L302 -83 C311 -54 320 -25 331 6 C334 14 335 21 336 30 L336 30 Z " />
<glyph glyph-name="quotesinglbase" unicode="&#x201a;" horiz-adv-x="236" d="M167 30 C168 33 167 39 166 46 C159 67 141 80 118 80 C90 80 69 62 69 34 C69 11 84 -4 104 -11 L82 -86 L132 -86 C143 -55 150 -26 161 5 C164 13 166 21 167 30 L167 30 Z " />
<glyph glyph-name="colon" unicode="&#x3a;" horiz-adv-x="239" d="M119 -9 C148 -9 171 11 171 38 C171 69 148 86 119 86 C91 86 68 69 68 38 C68 11 91 -9 119 -9 L119 -9 Z M119 324 C148 324 171 344 171 371 C171 402 148 419 119 419 C91 419 68 402 68 371 C68 344 91 324 119 324 L119 324 Z " />
<glyph glyph-name="semicolon" unicode="&#x3b;" horiz-adv-x="239" d="M118 326 C146 326 168 344 168 371 C168 400 146 418 118 418 C91 418 69 400 69 371 C69 344 91 326 118 326 L118 326 Z M169 30 C170 33 169 39 168 46 C161 67 143 80 120 80 C92 80 71 62 71 34 C71 11 86 -4 106 -11 L86 -81 L135 -81 C144 -53 152 -25 163 6 C166 13 168 21 169 30 L169 30 Z " />
<glyph glyph-name="quoteleft" unicode="&#x2018;" horiz-adv-x="222" d="M62 590 C61 583 62 580 63 573 C68 553 87 540 110 540 C138 540 160 558 160 586 C160 609 145 625 124 630 L145 702 L95 702 L67 614 C64 606 63 598 62 590 L62 590 Z " />
<glyph glyph-name="quoteright" unicode="&#x2019;" horiz-adv-x="224" d="M163 653 C163 660 164 663 161 670 C156 690 137 703 114 703 C86 703 65 685 65 657 C65 634 80 619 100 612 L79 541 L129 541 L157 629 C160 638 162 646 163 653 L163 653 Z " />
<glyph glyph-name="quotedblleft" unicode="&#x201c;" horiz-adv-x="371" d="M62 589 C62 582 63 579 64 572 C69 551 88 539 111 539 C139 539 160 557 160 584 C160 608 145 624 125 629 L146 700 L96 700 L68 613 C65 604 65 597 62 589 L62 589 Z M211 589 C210 582 211 579 212 572 C219 551 237 539 260 539 C288 539 309 557 309 584 C309 608 294 624 274 629 L294 700 L245 700 L217 613 C214 604 212 596 211 589 L211 589 Z " />
<glyph glyph-name="quotedblright" unicode="&#x201d;" horiz-adv-x="376" d="M163 653 C163 660 164 663 161 670 C156 690 137 703 114 703 C86 703 65 685 65 657 C65 634 80 619 100 612 L79 541 L129 541 L157 629 C160 638 162 646 163 653 L163 653 Z M315 653 C316 660 315 663 314 670 C307 690 289 703 266 703 C238 703 217 685 217 657 C217 634 232 619 252 612 L232 541 L281 541 L309 629 C312 638 314 646 315 653 L315 653 Z " />
<glyph glyph-name="bullet" unicode="&#x2022;" horiz-adv-x="386" d="M192 259 C249 259 298 301 298 357 C298 418 249 456 192 456 C136 456 88 418 88 357 C88 301 136 259 192 259 L192 259 Z " />
<glyph glyph-name="dagger" unicode="&#x2020;" horiz-adv-x="463" d="M36 386 L196 386 L196 -80 L268 -80 L268 386 L427 386 L427 454 L268 454 L268 702 L196 702 L196 454 L36 454 L36 386 Z " />
<glyph glyph-name="daggerdbl" unicode="&#x2021;" horiz-adv-x="522" d="M58 150 L224 150 L224 -80 L296 -80 L296 150 L464 150 L464 216 L296 216 L296 418 L464 418 L464 483 L296 483 L296 702 L224 702 L224 483 L58 483 L58 418 L224 418 L224 216 L58 216 L58 150 Z " />
<glyph glyph-name="exclamdown" unicode="&#xa1;" horiz-adv-x="232" d="M117 488 C89 488 67 469 67 442 C67 414 89 396 117 396 C144 396 165 414 165 442 C165 469 144 488 117 488 L117 488 Z M153 322 L79 322 L75 -225 L158 -225 L153 322 Z " />
<glyph glyph-name="divide" unicode="&#xf7;" horiz-adv-x="544" d="M271 150 C298 150 321 168 321 195 C321 223 298 241 271 241 C244 241 222 223 222 195 C222 168 244 150 271 150 L271 150 Z M271 477 C298 477 321 495 321 522 C321 550 298 568 271 568 C244 568 222 550 222 522 C222 495 244 477 271 477 L271 477 Z M77 324 L467 324 L467 393 L77 393 L77 324 Z " />
<glyph glyph-name="dieresis" unicode="&#xa8;" horiz-adv-x="507" d="M367 618 C394 618 416 636 416 663 C416 691 394 709 367 709 C339 709 318 691 318 663 C318 636 339 618 367 618 L367 618 Z M132 618 C160 618 182 636 182 663 C182 691 160 709 132 709 C105 709 83 691 83 663 C83 636 105 618 132 618 L132 618 Z " />
<glyph glyph-name="asciicircum" unicode="&#x5e;" horiz-adv-x="525" d="M232 701 L60 416 L131 416 L260 631 L394 416 L465 416 L289 701 L232 701 Z " />
<glyph glyph-name="asciitilde" unicode="&#x7e;" horiz-adv-x="613" d="M111 289 C154 378 233 356 301 317 C404 256 506 251 554 378 L500 403 C461 308 387 335 312 383 C216 444 104 427 62 316 L111 289 Z " />
<glyph glyph-name="tilde" unicode="&#x2dc;" horiz-adv-x="420" d="M104 612 C132 661 169 656 212 629 C283 586 347 615 376 686 C361 693 349 700 333 708 C306 659 272 662 232 689 C156 733 96 707 61 634 L104 612 L104 612 Z " />
<glyph glyph-name="ring" unicode="&#x2da;" horiz-adv-x="379" d="M300 614 C300 753 75 753 75 614 C75 475 300 475 300 614 L300 614 Z M122 614 C122 694 253 694 253 614 C253 534 122 534 122 614 L122 614 Z " />
<glyph glyph-name="cedilla" unicode="&#xb8;" horiz-adv-x="392" d="M156 -76 C194 -71 257 -95 241 -144 C225 -195 134 -178 99 -146 L95 -194 C157 -240 276 -239 303 -159 C319 -105 287 -55 222 -52 L238 11 L179 11 L156 -76 Z " />
<glyph glyph-name="breve" unicode="&#x2d8;" horiz-adv-x="529" d="M86 703 C106 516 418 514 438 703 L368 703 C349 602 176 601 156 703 L86 703 Z " />
<glyph glyph-name="caron" unicode="&#x2c7;" horiz-adv-x="531" d="M86 702 L86 695 L224 561 L303 561 L442 693 L442 702 L361 702 L263 610 L165 702 L86 702 Z " />
<glyph glyph-name="grave" unicode="&#x60;" horiz-adv-x="336" d="M237 582 L237 589 L162 721 L90 692 L90 685 L171 582 L237 582 Z " />
<glyph glyph-name="circumflex" unicode="&#x2c6;" horiz-adv-x="494" d="M426 563 L426 570 L288 703 L209 703 L70 571 L70 563 L151 563 L249 654 L347 563 L426 563 Z " />
<glyph glyph-name="acute" unicode="&#xb4;" horiz-adv-x="303" d="M147 576 L228 679 L228 686 L156 715 L81 583 L81 576 L147 576 Z " />
<glyph glyph-name="thorn" unicode="&#xfe;" horiz-adv-x="583" d="M537 245 C537 461 337 559 154 445 L154 719 L76 719 L76 -247 L154 -247 L154 45 C336 -67 537 29 537 245 L537 245 Z M458 245 C458 67 285 15 153 117 L153 373 C285 475 458 423 458 245 L458 245 Z " />
<glyph glyph-name="hungarumlaut" unicode="&#x2dd;" horiz-adv-x="518" d="M104 568 L168 568 L235 677 L235 684 L163 702 L104 575 L104 568 Z M288 568 L352 568 L418 667 L418 675 L347 696 L288 575 L288 568 Z " />
<glyph glyph-name="ae" unicode="&#xe6;" horiz-adv-x="836" d="M204 -9 C292 -9 367 23 415 91 C451 23 517 -10 605 -11 C661 -11 717 4 772 27 L759 85 C714 64 657 49 605 52 C500 53 441 120 441 232 L787 232 C814 373 753 491 596 491 C513 491 448 449 419 376 C406 461 320 491 237 491 C173 491 118 475 74 451 L87 396 C122 416 170 430 226 430 C294 430 374 404 374 322 L374 265 C338 285 298 295 258 300 C238 303 217 303 197 302 C108 294 35 239 38 137 C38 43 119 -9 204 -9 L204 -9 Z M375 202 C376 183 379 170 384 153 C360 89 286 54 219 54 C163 55 115 81 114 141 C111 210 167 242 231 242 C280 242 332 229 375 202 L375 202 Z M591 429 C676 429 729 376 725 292 L444 292 C457 376 507 430 591 429 L591 429 Z " />
<glyph glyph-name="&amp;#xb5;" unicode="&#xb5;" horiz-adv-x="572" d="M512 0 L512 483 L436 483 L436 201 C436 112 377 53 293 53 C205 54 157 107 156 198 L156 483 L81 483 L81 -250 L156 -250 L156 74 C181 22 224 -8 295 -8 C366 -8 416 30 436 90 L436 0 L512 0 Z " />
<glyph glyph-name="&amp;#x3bc;" unicode="&#x3bc;" horiz-adv-x="572" d="M512 0 L512 483 L436 483 L436 201 C436 112 377 53 293 53 C205 54 157 107 156 198 L156 483 L81 483 L81 -250 L156 -250 L156 74 C181 22 224 -8 295 -8 C366 -8 416 30 436 90 L436 0 L512 0 Z " />
<glyph glyph-name="oe" unicode="&#x153;" horiz-adv-x="902" d="M45 240 C45 -47 397 -91 473 130 C502 39 573 -7 672 -10 C728 -11 782 4 837 28 L824 88 C779 67 724 51 673 54 C569 57 512 122 513 231 L853 231 C879 371 819 491 664 491 C571 491 502 439 473 355 C385 571 45 523 45 240 L45 240 Z M121 240 C121 481 438 481 438 240 C438 -1 121 -1 121 240 L121 240 Z M658 428 C741 428 793 375 788 291 L515 291 C528 375 575 428 658 428 L658 428 Z " />
<glyph glyph-name="germandbls" unicode="&#xdf;" horiz-adv-x="588" d="M75 1 L154 1 L154 491 C154 636 262 665 401 620 L258 380 L258 355 C357 382 459 323 459 215 C459 95 379 36 255 68 L255 2 C422 -43 543 37 543 215 C543 330 460 414 361 414 L506 650 L506 671 C386 707 75 782 75 501 L75 1 Z " />
<glyph glyph-name="eth" unicode="&#xf0;" horiz-adv-x="593" d="M46 235 C46 -96 550 -86 546 235 C546 366 477 498 383 600 L440 642 L418 674 L355 629 C328 656 302 677 273 696 L203 696 L203 692 C242 667 277 634 309 597 L248 554 L270 522 L334 566 C373 522 422 465 443 410 C411 450 342 471 290 471 C167 468 46 391 46 235 L46 235 Z M473 235 C473 1 124 1 124 235 C124 464 473 464 473 235 L473 235 Z " />
<glyph glyph-name="paragraph" unicode="&#xb6;" horiz-adv-x="735" d="M641 -199 L641 699 L281 699 C-56 699 -32 186 273 178 L273 -199 L352 -199 L352 627 L563 627 L563 -199 L641 -199 Z " />
<glyph glyph-name="ordfeminine" unicode="&#xaa;" horiz-adv-x="493" d="M329 401 C321 348 368 330 422 344 L420 380 C389 377 382 389 382 410 L382 573 C382 670 308 705 221 705 C177 705 133 695 98 676 L109 633 C140 650 176 657 212 657 C268 657 319 637 319 574 L319 543 C286 560 245 569 206 570 C134 570 63 532 66 450 C69 375 128 342 194 342 C246 342 304 357 329 401 L329 401 Z M88 214 L409 214 L409 266 L88 266 L88 214 Z M319 459 C306 412 252 391 205 391 C162 391 128 411 128 455 C128 503 169 524 215 524 C252 524 288 517 319 498 L319 459 Z " />
<glyph glyph-name="copyright" unicode="&#xa9;" horiz-adv-x="791" d="M734 347 C734 802 57 802 57 347 C57 -110 734 -108 734 347 L734 347 Z M550 403 C510 569 236 547 236 346 C236 145 515 122 555 299 L505 299 C489 250 446 228 403 229 C341 232 288 276 288 346 C288 482 469 503 501 399 L550 403 Z M116 347 C116 733 675 733 675 347 C675 -38 116 -38 116 347 L116 347 Z " />
<glyph glyph-name="registered" unicode="&#xae;" horiz-adv-x="791" d="M734 350 C734 805 57 805 57 350 C57 -107 734 -105 734 350 L734 350 Z M460 308 C507 317 537 357 537 406 C537 474 486 513 421 513 L287 513 L287 186 L338 186 L338 301 L409 301 L494 186 L547 186 L547 194 L460 308 Z M338 469 L417 469 C457 469 486 443 486 406 C486 367 457 343 417 343 L338 343 L338 469 Z M117 350 C117 736 675 736 675 350 C675 -35 117 -35 117 350 L117 350 Z " />
<glyph glyph-name="trademark" unicode="&#x2122;" horiz-adv-x="759" d="M168 652 L168 422 L223 422 L223 652 L321 652 L321 701 L70 701 L70 652 L168 652 Z M401 701 L371 701 L371 422 L427 422 L427 593 L521 478 L525 478 L620 593 L620 422 L676 422 L676 701 L646 701 L523 556 L401 701 Z " />
<glyph glyph-name="yen" unicode="&#xa5;" horiz-adv-x="561" d="M320 0 L320 144 L462 144 L462 201 L320 201 L320 264 L462 264 L462 320 L338 320 L525 689 L525 700 L436 700 L281 366 L126 700 L36 700 L36 689 L222 320 L99 320 L99 264 L241 264 L241 201 L99 201 L99 144 L241 144 L241 0 L320 0 Z " />
<glyph glyph-name="currency" unicode="&#xa4;" horiz-adv-x="565" d="M127 558 L77 508 L134 450 C117 423 106 390 106 347 C106 306 115 271 134 242 L77 185 L127 135 L185 193 C244 156 322 154 382 189 L437 135 L487 185 L434 237 C454 266 467 302 467 347 C467 391 455 428 435 456 L487 508 L437 558 L383 504 C322 538 243 538 184 500 L127 558 Z M173 347 C173 503 400 503 400 347 C400 190 173 190 173 347 L173 347 Z " />
<glyph glyph-name="plusminus" unicode="&#xb1;" horiz-adv-x="521" d="M84 333 L229 333 L229 183 L293 183 L293 333 L439 333 L439 397 L293 397 L293 542 L229 542 L229 397 L84 397 L84 333 Z M74 39 L445 39 L445 106 L74 106 L74 39 Z " />
<glyph glyph-name="percent" unicode="&#x25;" horiz-adv-x="838" d="M208 -1 L287 -1 L629 698 L551 698 L208 -1 Z M802 152 C802 373 471 374 471 152 C471 -69 802 -69 802 152 L802 152 Z M535 152 C535 297 737 297 737 152 C737 7 535 7 535 152 L535 152 Z M368 545 C368 768 37 767 37 545 C37 323 368 323 368 545 L368 545 Z M102 545 C102 690 304 690 304 545 C304 400 102 400 102 545 L102 545 Z " />
<glyph glyph-name="asterisk" unicode="&#x2a;" horiz-adv-x="412" d="M352 592 L334 644 L232 604 L236 713 L178 713 L182 603 L75 641 L58 588 L167 556 L92 465 L139 430 L207 524 L276 430 L324 465 L247 557 L352 592 Z " />
<glyph glyph-name="numbersign" unicode="&#x23;" horiz-adv-x="690" d="M46 200 L162 200 L131 0 L205 0 L234 200 L430 200 L400 0 L474 0 L502 200 L613 200 L613 257 L511 257 L535 421 L644 421 L644 478 L543 478 L576 699 L505 699 L472 478 L275 478 L307 699 L237 699 L204 478 L77 478 L77 421 L195 421 L171 257 L46 257 L46 200 Z M265 423 L465 423 L441 255 L240 255 L265 423 Z " />
<glyph glyph-name="perthousand" unicode="&#x2030;" horiz-adv-x="1231" d="M208 -1 L286 -1 L628 698 L550 698 L208 -1 Z M799 152 C799 373 467 374 467 152 C467 -69 799 -69 799 152 L799 152 Z M532 152 C532 297 734 297 734 152 C734 7 532 7 532 152 L532 152 Z M368 545 C368 768 37 767 37 545 C37 323 368 323 368 545 L368 545 Z M103 545 C103 690 304 690 304 545 C304 400 103 400 103 545 L103 545 Z M1195 152 C1195 373 863 374 863 152 C863 -69 1195 -69 1195 152 L1195 152 Z M928 152 C928 297 1130 297 1130 152 C1130 7 928 7 928 152 L928 152 Z " />
<glyph glyph-name="Ydieresis" unicode="&#x178;" horiz-adv-x="628" d="M313 366 L212 537 L110 700 L19 700 L19 689 L272 287 L272 0 L356 0 L356 287 L608 688 L608 700 L519 700 L417 536 L316 366 L313 366 Z M430 752 C457 752 479 770 479 797 C479 825 457 843 430 843 C402 843 381 825 381 797 C381 770 402 752 430 752 L430 752 Z M195 752 C223 752 245 770 245 797 C245 825 223 843 195 843 C168 843 146 825 146 797 C146 770 168 752 195 752 L195 752 Z " />
<glyph glyph-name="ogonek" unicode="&#x2db;" horiz-adv-x="364" d="M145 7 C99 -25 70 -79 91 -132 C123 -219 231 -209 295 -172 L285 -119 C247 -140 178 -162 151 -111 C128 -70 165 -14 205 7 L145 7 Z " />
<glyph glyph-name="florin" unicode="&#x192;" horiz-adv-x="547" d="M309 310 L479 310 L479 368 L309 368 L309 534 C309 661 405 672 502 629 L512 689 C366 750 231 706 231 533 L231 368 L70 368 L70 310 L231 310 L231 -36 C231 -161 140 -176 47 -133 L38 -193 C177 -249 309 -216 309 -38 L309 310 Z " />
<glyph glyph-name="parenleft" unicode="&#x28;" horiz-adv-x="307" d="M250 769 C-25 590 -18 -25 250 -205 L278 -157 C83 2 74 565 278 721 L250 769 Z " />
<glyph glyph-name="parenright" unicode="&#x29;" horiz-adv-x="307" d="M29 721 C234 564 222 4 29 -157 L57 -205 C324 -23 333 593 57 769 L29 721 Z " />
<glyph glyph-name="bracketright" unicode="&#x5d;" horiz-adv-x="300" d="M41 690 L143 690 L143 -104 L41 -104 L41 -176 L217 -176 L217 755 L41 755 L41 690 Z " />
<glyph glyph-name="bracketleft" unicode="&#x5b;" horiz-adv-x="300" d="M259 755 L83 755 L83 -176 L259 -176 L259 -104 L157 -104 L157 690 L259 690 L259 755 Z " />
<glyph glyph-name="braceleft" unicode="&#x7b;" horiz-adv-x="298" d="M256 765 C155 765 95 747 95 629 L94 435 C94 393 90 339 39 331 L39 272 C88 267 94 207 94 167 L95 -35 C95 -156 151 -173 256 -173 L256 -109 C197 -112 169 -95 169 -32 L169 173 C169 223 166 281 116 302 C164 323 169 380 169 429 L169 627 C169 690 196 707 256 706 L256 765 Z " />
<glyph glyph-name="braceright" unicode="&#x7d;" horiz-adv-x="298" d="M42 706 C102 707 129 690 129 627 L129 429 C129 380 137 323 185 302 C134 281 129 224 129 173 L129 -32 C129 -95 101 -112 42 -109 L42 -173 C147 -173 203 -156 203 -35 L204 167 C204 207 210 267 259 272 L259 331 C208 339 204 393 204 435 L203 629 C203 747 143 765 42 765 L42 706 Z " />
<glyph glyph-name="guilsinglleft" unicode="&#x2039;" horiz-adv-x="305" d="M241 551 L189 569 L54 346 L189 124 L241 144 L137 346 L241 551 Z " />
<glyph glyph-name="guilsinglright" unicode="&#x203a;" horiz-adv-x="305" d="M168 346 L64 144 L116 124 L251 346 L116 569 L64 551 L168 346 Z " />
<glyph glyph-name="guillemotleft" unicode="&#xab;" horiz-adv-x="468" d="M241 551 L189 569 L54 346 L189 124 L241 144 L137 346 L241 551 Z M404 551 L352 569 L217 346 L352 124 L404 144 L300 346 L404 551 Z " />
<glyph glyph-name="guillemotright" unicode="&#xbb;" horiz-adv-x="468" d="M331 346 L227 144 L279 124 L414 346 L279 569 L227 551 L331 346 Z M168 346 L64 144 L116 124 L251 346 L116 569 L64 551 L168 346 Z " />
<glyph glyph-name="scaron" unicode="&#x161;" horiz-adv-x="509" d="M40 136 C48 26 149 -12 254 -12 C366 -9 466 39 466 138 C469 252 363 266 262 279 C173 292 128 304 127 351 C124 407 192 430 253 430 C316 430 378 406 378 354 L453 354 C456 447 353 492 253 492 C153 492 50 449 53 349 C56 249 160 229 255 218 C344 205 390 193 390 138 C387 79 321 51 254 51 C189 51 121 75 116 136 L40 136 Z M95 690 L95 683 L220 563 L292 563 L418 682 L418 690 L344 690 L255 607 L167 690 L95 690 Z " />
<glyph glyph-name="Scaron" unicode="&#x160;" horiz-adv-x="646" d="M47 191 C52 47 198 -15 328 -12 C455 -9 599 45 599 195 C599 350 469 375 330 391 C245 402 144 406 144 510 C144 602 240 634 317 637 C397 637 491 609 499 520 L577 520 C572 656 436 715 315 712 C192 712 61 647 61 509 C61 369 189 336 316 323 C411 310 517 308 517 195 C514 93 411 64 327 61 C241 61 133 97 128 191 L47 191 Z M148 928 L148 921 L286 787 L365 787 L504 919 L504 928 L423 928 L325 836 L227 928 L148 928 Z " />
<glyph glyph-name="degree" unicode="&#xb0;" horiz-adv-x="431" d="M379 554 C379 759 52 759 52 554 C52 349 379 348 379 554 L379 554 Z M112 554 C112 687 319 689 319 554 C319 420 112 420 112 554 L112 554 Z " />
<glyph glyph-name="Euro" unicode="&#x20ac;" horiz-adv-x="657" d="M47 392 L121 392 C118 365 118 338 121 313 L47 313 L47 253 L130 253 C165 90 297 -9 469 -9 C520 -9 568 1 615 22 L588 91 C553 74 514 64 471 64 C340 64 247 141 215 253 L415 253 L436 313 L203 313 C200 338 199 365 203 392 L460 392 L482 450 L218 450 C252 561 346 637 472 637 C507 637 538 631 567 620 L592 687 C553 701 512 708 470 708 C305 708 171 611 131 450 L47 450 L47 392 Z " />
<glyph glyph-name="cent" unicode="&#xa2;" horiz-adv-x="602" d="M542 333 C522 406 473 455 409 479 L438 563 L401 563 L375 488 C234 517 62 433 62 243 C62 124 127 47 210 12 L179 -79 L218 -79 L245 0 C369 -32 513 23 550 166 L475 169 C446 76 350 46 268 67 L386 409 C422 394 453 369 468 330 L542 333 Z M235 82 C182 109 140 163 140 243 C140 375 255 437 351 421 L235 82 Z " />
<glyph glyph-name="sterling" unicode="&#xa3;" horiz-adv-x="657" d="M47 320 L136 320 C144 277 149 239 148 204 C143 118 116 67 54 8 L54 0 L135 0 C226 59 385 -9 477 -9 C572 -9 616 50 608 167 L541 167 C544 83 511 60 463 60 C374 60 269 121 180 83 C204 117 219 154 224 195 C229 238 224 280 217 320 L450 320 L450 381 L208 381 C165 552 249 633 358 638 C418 641 484 626 541 589 L569 649 C501 688 431 710 362 709 C213 709 82 601 127 381 L47 381 L47 320 Z " />
<glyph glyph-name="section" unicode="&#xa7;" horiz-adv-x="643" d="M415 177 C372 185 330 189 287 193 C211 201 149 224 146 296 C143 354 196 390 250 404 C270 401 288 400 311 397 C424 386 510 369 510 287 C510 231 466 192 415 177 L415 177 Z M176 425 C116 401 68 358 71 288 C74 179 171 142 274 134 C354 126 504 125 504 21 C504 -57 398 -85 325 -88 C250 -91 137 -62 134 21 C107 21 83 20 55 20 C58 -105 209 -155 326 -152 C440 -149 585 -102 585 21 C585 94 545 130 489 153 C542 180 584 225 585 289 C585 424 458 444 323 457 C231 468 151 478 151 548 C151 628 247 651 314 654 C383 657 479 630 484 555 L561 555 C556 674 420 722 312 719 C201 716 72 667 72 547 C72 479 115 446 176 425 L176 425 Z " />
<glyph glyph-name="fraction" unicode="&#x2044;" horiz-adv-x="473" d="M6 -60 L88 -60 L470 729 L388 729 L6 -60 Z " />
<glyph glyph-name="dotaccent" unicode="&#x2d9;" horiz-adv-x="321" d="M146 614 C173 614 196 632 196 659 C196 688 173 706 146 706 C119 706 97 688 97 659 C97 632 119 614 146 614 L146 614 Z " />
<glyph glyph-name="dotlessi" unicode="&#x131;" horiz-adv-x="235" d="M157 481 L78 481 L78 0 L157 0 L157 481 Z " />
<glyph glyph-name="zcaron" unicode="&#x17e;" horiz-adv-x="461" d="M424 482 L45 482 L45 414 L303 414 L30 10 L30 0 L422 0 L422 69 L155 69 L424 471 L424 482 Z M83 697 L83 691 L200 576 L268 576 L386 689 L386 697 L317 697 L234 618 L150 697 L83 697 Z " />
<glyph glyph-name="Zcaron" unicode="&#x17d;" horiz-adv-x="584" d="M548 700 L48 700 L48 626 L417 626 L21 11 L21 0 L549 0 L549 76 L152 76 L548 687 L548 700 Z M117 923 L117 916 L255 782 L334 782 L473 914 L473 923 L392 923 L294 831 L196 923 L117 923 Z " />
<glyph glyph-name="Lslash" unicode="&#x141;" horiz-adv-x="530" d="M184 700 L100 700 L100 354 L24 333 L24 264 L100 286 L100 0 L505 0 L505 75 L184 75 L184 309 L294 342 L294 411 L184 378 L184 700 Z " />
<glyph glyph-name="lslash" unicode="&#x142;" horiz-adv-x="292" d="M84 731 L84 356 L7 334 L7 265 L84 288 L84 206 C84 38 127 -34 287 -10 L284 52 C183 36 163 81 163 176 L163 310 L259 339 L259 407 L163 378 L163 731 L84 731 Z " />
<glyph glyph-name="macron" unicode="&#xaf;" horiz-adv-x="499" d="M94 636 L391 636 L391 697 L94 697 L94 636 Z " />
<glyph glyph-name="Agrave" unicode="&#xc0;" horiz-adv-x="706" d="M528 173 L610 0 L696 0 L696 11 L373 703 L335 703 L9 11 L9 0 L96 0 L178 173 L528 173 Z M353 572 L500 245 L206 245 L353 572 Z M393 764 L393 771 L318 903 L246 874 L246 867 L327 764 L393 764 Z " />
<glyph glyph-name="Aacute" unicode="&#xc1;" horiz-adv-x="706" d="M528 173 L610 0 L696 0 L696 11 L373 703 L335 703 L9 11 L9 0 L96 0 L178 173 L528 173 Z M353 572 L500 245 L206 245 L353 572 Z M388 767 L469 870 L469 877 L397 906 L322 774 L322 767 L388 767 Z " />
<glyph glyph-name="Acircumflex" unicode="&#xc2;" horiz-adv-x="706" d="M528 173 L610 0 L696 0 L696 11 L373 703 L335 703 L9 11 L9 0 L96 0 L178 173 L528 173 Z M353 572 L500 245 L206 245 L353 572 Z M530 745 L530 752 L392 885 L313 885 L174 753 L174 745 L255 745 L353 836 L451 745 L530 745 Z " />
<glyph glyph-name="Atilde" unicode="&#xc3;" horiz-adv-x="706" d="M528 173 L610 0 L696 0 L696 11 L373 703 L335 703 L9 11 L9 0 L96 0 L178 173 L528 173 Z M353 572 L500 245 L206 245 L353 572 Z M239 763 C267 812 304 807 347 780 C418 737 482 766 511 837 C496 844 484 851 468 859 C441 810 407 813 367 840 C291 884 231 858 196 785 L239 763 Z " />
<glyph glyph-name="Adieresis" unicode="&#xc4;" horiz-adv-x="706" d="M528 173 L610 0 L696 0 L696 11 L373 703 L335 703 L9 11 L9 0 L96 0 L178 173 L528 173 Z M353 572 L500 245 L206 245 L353 572 Z M472 757 C499 757 521 775 521 802 C521 830 499 848 472 848 C444 848 423 830 423 802 C423 775 444 757 472 757 L472 757 Z M237 757 C265 757 287 775 287 802 C287 830 265 848 237 848 C210 848 188 830 188 802 C188 775 210 757 237 757 L237 757 Z " />
<glyph glyph-name="Aring" unicode="&#xc5;" horiz-adv-x="706" d="M281 801 C281 885 421 885 421 801 C421 716 281 716 281 801 L281 801 Z M353 564 L500 245 L206 245 L353 564 Z M528 173 L610 0 L696 0 L696 11 L377 695 C426 703 470 737 470 801 C470 948 232 948 232 801 C232 735 278 702 330 694 L9 11 L9 0 L96 0 L178 173 L528 173 Z " />
<glyph glyph-name="Ccedilla" unicode="&#xc7;" horiz-adv-x="762" d="M50 350 C50 142 193 2 380 -6 L360 -82 C398 -79 457 -95 441 -144 C425 -195 338 -186 303 -154 L299 -201 C361 -247 481 -248 507 -166 C526 -107 490 -65 426 -62 L440 -5 C567 6 682 83 719 224 L638 224 C601 123 510 69 403 69 C242 69 135 192 135 350 C135 513 243 634 404 631 C505 631 591 584 634 489 L715 489 C673 635 539 708 404 708 C207 711 50 569 50 350 L50 350 Z " />
<glyph glyph-name="Egrave" unicode="&#xc8;" horiz-adv-x="569" d="M500 700 L93 700 L93 0 L511 0 L511 77 L177 77 L177 325 L489 325 L489 398 L177 398 L177 627 L500 627 L500 700 Z M361 761 L361 768 L286 900 L214 871 L214 864 L295 761 L361 761 Z " />
<glyph glyph-name="Eacute" unicode="&#xc9;" horiz-adv-x="569" d="M500 700 L93 700 L93 0 L511 0 L511 77 L177 77 L177 325 L489 325 L489 398 L177 398 L177 627 L500 627 L500 700 Z M332 762 L413 865 L413 872 L341 901 L266 769 L266 762 L332 762 Z " />
<glyph glyph-name="Ecircumflex" unicode="&#xca;" horiz-adv-x="569" d="M500 700 L93 700 L93 0 L511 0 L511 77 L177 77 L177 325 L489 325 L489 398 L177 398 L177 627 L500 627 L500 700 Z M469 766 L469 773 L337 904 L261 904 L129 774 L129 766 L206 766 L300 856 L393 766 L469 766 Z " />
<glyph glyph-name="Edieresis" unicode="&#xcb;" horiz-adv-x="569" d="M500 700 L93 700 L93 0 L511 0 L511 77 L177 77 L177 325 L489 325 L489 398 L177 398 L177 627 L500 627 L500 700 Z M416 766 C443 766 465 784 465 811 C465 839 443 857 416 857 C388 857 367 839 367 811 C367 784 388 766 416 766 L416 766 Z M181 766 C209 766 231 784 231 811 C231 839 209 857 181 857 C154 857 132 839 132 811 C132 784 154 766 181 766 L181 766 Z " />
<glyph glyph-name="egrave" unicode="&#xe8;" horiz-adv-x="554" d="M292 493 C160 493 50 406 45 254 C40 90 153 -11 313 -11 C372 -11 433 3 490 30 L478 89 C422 66 370 54 315 54 C206 54 118 122 123 233 L506 233 C533 392 456 492 292 493 L292 493 Z M292 431 C378 431 445 384 440 293 L126 293 C139 380 204 431 292 431 L292 431 Z M336 591 L336 597 L266 721 L198 694 L198 687 L274 591 L336 591 Z " />
<glyph glyph-name="eacute" unicode="&#xe9;" horiz-adv-x="554" d="M292 493 C160 493 50 406 45 254 C40 90 153 -11 313 -11 C372 -11 433 3 490 30 L478 89 C422 66 370 54 315 54 C206 54 118 122 123 233 L506 233 C533 392 456 492 292 493 L292 493 Z M292 431 C378 431 445 384 440 293 L126 293 C139 380 204 431 292 431 L292 431 Z M306 592 L381 688 L381 694 L314 721 L244 599 L244 592 L306 592 Z " />
<glyph glyph-name="ecircumflex" unicode="&#xea;" horiz-adv-x="554" d="M292 493 C160 493 50 406 45 254 C40 90 153 -11 313 -11 C372 -11 433 3 490 30 L478 89 C422 66 370 54 315 54 C206 54 118 122 123 233 L506 233 C533 392 456 492 292 493 L292 493 Z M292 431 C378 431 445 384 440 293 L126 293 C139 380 204 431 292 431 L292 431 Z M455 578 L455 585 L327 708 L254 708 L125 586 L125 578 L200 578 L291 663 L381 578 L455 578 Z " />
<glyph glyph-name="edieresis" unicode="&#xeb;" horiz-adv-x="554" d="M389 608 C414 608 434 626 434 650 C434 675 414 692 389 692 C362 692 343 675 343 650 C343 626 362 608 389 608 L389 608 Z M183 608 C210 608 230 626 230 650 C230 675 210 692 183 692 C158 692 138 675 138 650 C138 626 158 608 183 608 L183 608 Z M292 493 C160 493 50 406 45 254 C40 90 153 -11 313 -11 C372 -11 433 3 490 30 L478 89 C422 66 370 54 315 54 C206 54 118 122 123 233 L506 233 C533 392 456 492 292 493 L292 493 Z M292 431 C378 431 445 384 440 293 L126 293 C139 380 204 431 292 431 L292 431 Z " />
<glyph glyph-name="Igrave" unicode="&#xcc;" horiz-adv-x="400" d="M242 67 L242 634 L355 634 L355 700 L45 700 L45 634 L158 634 L158 67 L37 67 L37 0 L363 0 L363 67 L242 67 Z M232 765 L232 772 L157 904 L85 875 L85 868 L166 765 L232 765 Z " />
<glyph glyph-name="Iacute" unicode="&#xcd;" horiz-adv-x="400" d="M242 67 L242 634 L355 634 L355 700 L45 700 L45 634 L158 634 L158 67 L37 67 L37 0 L363 0 L363 67 L242 67 Z M219 761 L300 864 L300 871 L228 900 L153 768 L153 761 L219 761 Z " />
<glyph glyph-name="Icircumflex" unicode="&#xce;" horiz-adv-x="400" d="M242 67 L242 634 L355 634 L355 700 L45 700 L45 634 L158 634 L158 67 L37 67 L37 0 L363 0 L363 67 L242 67 Z M375 752 L375 758 L243 888 L168 888 L35 759 L35 752 L112 752 L206 840 L300 752 L375 752 Z " />
<glyph glyph-name="Idieresis" unicode="&#xcf;" horiz-adv-x="400" d="M242 67 L242 634 L355 634 L355 700 L45 700 L45 634 L158 634 L158 67 L37 67 L37 0 L363 0 L363 67 L242 67 Z M322 758 C349 758 371 776 371 803 C371 831 349 849 322 849 C294 849 273 831 273 803 C273 776 294 758 322 758 L322 758 Z M87 758 C115 758 137 776 137 803 C137 831 115 849 87 849 C60 849 38 831 38 803 C38 776 60 758 87 758 L87 758 Z " />
<glyph glyph-name="igrave" unicode="&#xec;" horiz-adv-x="235" d="M157 481 L78 481 L78 0 L157 0 L157 481 Z M160 584 L160 591 L88 718 L18 690 L18 684 L96 584 L160 584 Z " />
<glyph glyph-name="iacute" unicode="&#xed;" horiz-adv-x="235" d="M157 481 L78 481 L78 0 L157 0 L157 481 Z M139 585 L216 683 L216 690 L147 718 L76 591 L76 585 L139 585 Z " />
<glyph glyph-name="icircumflex" unicode="&#xee;" horiz-adv-x="235" d="M157 481 L78 481 L78 0 L157 0 L157 481 Z M266 567 L266 574 L150 712 L83 712 L-34 575 L-34 567 L34 567 L117 661 L200 567 L266 567 Z " />
<glyph glyph-name="Eth" unicode="&#xd0;" horiz-adv-x="734" d="M16 311 L96 311 L96 0 L344 0 C558 0 684 161 684 351 C684 537 558 700 344 700 L96 700 L96 378 L16 378 L16 311 Z M180 76 L180 311 L306 311 L306 378 L180 378 L180 623 L342 623 C502 623 601 499 601 350 C601 199 502 76 342 76 L180 76 Z " />
<glyph glyph-name="Ntilde" unicode="&#xd1;" horiz-adv-x="746" d="M626 -1 L653 -1 L653 701 L569 701 L569 373 L578 172 L122 702 L93 702 L93 0 L176 0 L176 337 L169 529 L626 -1 Z M255 758 C283 807 320 802 363 775 C434 732 498 761 527 832 C512 839 500 846 484 854 C457 805 423 808 383 835 C307 879 247 853 212 780 L255 758 Z " />
<glyph glyph-name="ntilde" unicode="&#xf1;" horiz-adv-x="598" d="M528 0 L528 286 C528 404 462 492 335 492 C267 492 208 475 165 410 C165 503 91 491 35 483 L36 421 C87 426 92 409 92 344 L92 0 L170 0 L170 289 C170 370 232 427 314 427 C393 427 449 373 449 286 L449 0 L528 0 Z M193 610 C220 657 255 651 295 626 C362 586 422 613 450 680 L410 701 C385 654 353 658 314 683 C242 724 185 700 153 631 C165 624 181 617 193 610 L193 610 Z " />
<glyph glyph-name="Ograve" unicode="&#xd2;" horiz-adv-x="810" d="M760 350 C760 572 601 712 405 712 C209 712 50 574 50 350 C50 127 207 -11 404 -11 C615 -11 760 138 760 350 L760 350 Z M134 350 C134 522 253 636 405 636 C560 636 676 520 676 350 C676 180 558 66 404 66 C251 66 134 180 134 350 L134 350 Z M448 774 L448 781 L373 913 L301 884 L301 877 L382 774 L448 774 Z " />
<glyph glyph-name="Oacute" unicode="&#xd3;" horiz-adv-x="810" d="M760 350 C760 572 601 712 405 712 C209 712 50 574 50 350 C50 127 207 -11 404 -11 C615 -11 760 138 760 350 L760 350 Z M134 350 C134 522 253 636 405 636 C560 636 676 520 676 350 C676 180 558 66 404 66 C251 66 134 180 134 350 L134 350 Z M437 775 L518 878 L518 885 L446 914 L371 782 L371 775 L437 775 Z " />
<glyph glyph-name="Ocircumflex" unicode="&#xd4;" horiz-adv-x="810" d="M760 350 C760 572 601 712 405 712 C209 712 50 574 50 350 C50 127 207 -11 404 -11 C615 -11 760 138 760 350 L760 350 Z M134 350 C134 522 253 636 405 636 C560 636 676 520 676 350 C676 180 558 66 404 66 C251 66 134 180 134 350 L134 350 Z M581 765 L581 772 L443 905 L364 905 L225 773 L225 765 L306 765 L404 856 L502 765 L581 765 Z " />
<glyph glyph-name="Otilde" unicode="&#xd5;" horiz-adv-x="810" d="M760 350 C760 572 601 712 405 712 C209 712 50 574 50 350 C50 127 207 -11 404 -11 C615 -11 760 138 760 350 L760 350 Z M134 350 C134 522 253 636 405 636 C560 636 676 520 676 350 C676 180 558 66 404 66 C251 66 134 180 134 350 L134 350 Z M293 785 C321 834 358 829 401 802 C472 759 536 788 565 859 C550 866 538 873 522 881 C495 832 461 835 421 862 C345 906 285 880 250 807 L293 785 Z " />
<glyph glyph-name="Odieresis" unicode="&#xd6;" horiz-adv-x="810" d="M760 350 C760 572 601 712 405 712 C209 712 50 574 50 350 C50 127 207 -11 404 -11 C615 -11 760 138 760 350 L760 350 Z M134 350 C134 522 253 636 405 636 C560 636 676 520 676 350 C676 180 558 66 404 66 C251 66 134 180 134 350 L134 350 Z M518 773 C545 773 567 791 567 818 C567 846 545 864 518 864 C490 864 469 846 469 818 C469 791 490 773 518 773 L518 773 Z M283 773 C311 773 333 791 333 818 C333 846 311 864 283 864 C256 864 234 846 234 818 C234 791 256 773 283 773 L283 773 Z " />
<glyph glyph-name="multiply" unicode="&#xd7;" horiz-adv-x="450" d="M69 456 L177 347 L70 239 L117 192 L225 299 L333 192 L380 239 L272 346 L381 456 L334 503 L225 395 L115 503 L69 456 Z " />
<glyph glyph-name="Thorn" unicode="&#xde;" horiz-adv-x="652" d="M175 189 L175 521 L373 521 C469 521 538 451 538 356 C538 259 468 189 373 189 L175 189 Z M93 0 L177 0 L177 116 L373 116 C521 116 618 221 618 354 C618 488 523 594 373 594 L177 594 L177 700 L93 700 L93 0 Z " />
<glyph glyph-name="yacute" unicode="&#xfd;" horiz-adv-x="547" d="M518 473 L518 481 L439 481 L351 265 L278 76 L277 76 L198 267 L102 481 L19 481 L19 473 L240 -4 L212 -72 C180 -152 142 -212 50 -169 L39 -227 C197 -296 252 -163 306 -34 L518 473 Z M295 579 L376 682 L376 689 L304 718 L229 586 L229 579 L295 579 Z " />
<glyph glyph-name="Yacute" unicode="&#xdd;" horiz-adv-x="628" d="M313 366 L212 537 L110 700 L19 700 L19 689 L272 287 L272 0 L356 0 L356 287 L608 688 L608 700 L519 700 L417 536 L316 366 L313 366 Z M328 765 L409 868 L409 875 L337 904 L262 772 L262 765 L328 765 Z " />
<glyph glyph-name="ydieresis" unicode="&#xff;" horiz-adv-x="547" d="M518 473 L518 481 L439 481 L351 265 L278 76 L277 76 L198 267 L102 481 L19 481 L19 473 L240 -4 L212 -72 C180 -152 142 -212 50 -169 L39 -227 C197 -296 252 -163 306 -34 L518 473 Z M394 602 C421 602 443 620 443 647 C443 675 421 693 394 693 C366 693 345 675 345 647 C345 620 366 602 394 602 L394 602 Z M159 602 C187 602 209 620 209 647 C209 675 187 693 159 693 C132 693 110 675 110 647 C110 620 132 602 159 602 L159 602 Z " />
<glyph glyph-name="ograve" unicode="&#xf2;" horiz-adv-x="598" d="M553 242 C553 577 45 577 45 242 C45 -93 553 -91 553 242 L553 242 Z M124 242 C124 487 475 487 475 242 C475 -4 124 -4 124 242 L124 242 Z M336 583 L336 589 L267 711 L200 684 L200 678 L275 583 L336 583 Z " />
<glyph glyph-name="oacute" unicode="&#xf3;" horiz-adv-x="598" d="M553 242 C553 577 45 577 45 242 C45 -93 553 -91 553 242 L553 242 Z M124 242 C124 487 475 487 475 242 C475 -4 124 -4 124 242 L124 242 Z M323 585 L398 681 L398 687 L331 714 L261 592 L261 585 L323 585 Z " />
<glyph glyph-name="ocircumflex" unicode="&#xf4;" horiz-adv-x="598" d="M553 242 C553 577 45 577 45 242 C45 -93 553 -91 553 242 L553 242 Z M124 242 C124 487 475 487 475 242 C475 -4 124 -4 124 242 L124 242 Z M461 572 L461 579 L335 706 L262 706 L135 580 L135 572 L209 572 L299 659 L389 572 L461 572 Z " />
<glyph glyph-name="otilde" unicode="&#xf5;" horiz-adv-x="598" d="M553 242 C553 577 45 577 45 242 C45 -93 553 -91 553 242 L553 242 Z M124 242 C124 487 475 487 475 242 C475 -4 124 -4 124 242 L124 242 Z M189 609 C216 656 251 650 291 625 C358 585 418 612 446 679 L406 700 C381 653 349 657 310 682 C238 723 181 699 149 630 C161 623 177 616 189 609 L189 609 Z " />
<glyph glyph-name="odieresis" unicode="&#xf6;" horiz-adv-x="598" d="M395 608 C420 608 440 626 440 650 C440 675 420 692 395 692 C368 692 349 675 349 650 C349 626 368 608 395 608 L395 608 Z M196 608 C223 608 243 626 243 650 C243 675 223 692 196 692 C171 692 151 675 151 650 C151 626 171 608 196 608 L196 608 Z M553 242 C553 577 45 577 45 242 C45 -93 553 -91 553 242 L553 242 Z M124 242 C124 487 475 487 475 242 C475 -4 124 -4 124 242 L124 242 Z " />
<glyph glyph-name="oslash" unicode="&#xf8;" horiz-adv-x="597" d="M553 243 C553 343 506 413 442 453 L488 544 L424 544 L390 477 C242 527 45 452 45 243 C45 138 95 68 163 29 L120 -56 L184 -56 L215 6 C363 -40 553 38 553 243 L553 243 Z M120 243 C120 392 260 451 361 414 L200 96 C153 123 120 171 120 243 L120 243 Z M477 243 C477 95 345 40 244 69 L404 385 C447 358 477 311 477 243 L477 243 Z " />
<glyph glyph-name="agrave" unicode="&#xe0;" horiz-adv-x="544" d="M400 87 C400 -1 438 -16 518 -3 L517 48 C458 40 461 71 461 124 L462 325 C462 451 360 493 250 493 C186 493 122 479 75 455 L88 395 C129 419 183 430 238 430 C306 430 386 408 386 327 L386 268 C338 295 279 308 224 308 C124 308 34 251 37 141 C40 44 121 -8 210 -8 C283 -8 365 20 400 87 L400 87 Z M385 163 C369 91 291 59 224 59 C170 59 117 83 114 144 C111 213 173 248 237 248 C286 248 341 234 385 209 L385 163 Z M312 587 L312 593 L243 714 L177 688 L177 681 L252 587 L312 587 Z " />
<glyph glyph-name="aacute" unicode="&#xe1;" horiz-adv-x="544" d="M400 87 C400 -1 438 -16 518 -3 L517 48 C458 40 461 71 461 124 L462 325 C462 451 360 493 250 493 C186 493 122 479 75 455 L88 395 C129 419 183 430 238 430 C306 430 386 408 386 327 L386 268 C338 295 279 308 224 308 C124 308 34 251 37 141 C40 44 121 -8 210 -8 C283 -8 365 20 400 87 L400 87 Z M385 163 C369 91 291 59 224 59 C170 59 117 83 114 144 C111 213 173 248 237 248 C286 248 341 234 385 209 L385 163 Z M273 587 L350 684 L350 690 L282 717 L211 593 L211 587 L273 587 Z " />
<glyph glyph-name="acircumflex" unicode="&#xe2;" horiz-adv-x="544" d="M400 87 C400 -1 438 -16 518 -3 L517 48 C458 40 461 71 461 124 L462 325 C462 451 360 493 250 493 C186 493 122 479 75 455 L88 395 C129 419 183 430 238 430 C306 430 386 408 386 327 L386 268 C338 295 279 308 224 308 C124 308 34 251 37 141 C40 44 121 -8 210 -8 C283 -8 365 20 400 87 L400 87 Z M385 163 C369 91 291 59 224 59 C170 59 117 83 114 144 C111 213 173 248 237 248 C286 248 341 234 385 209 L385 163 Z M413 579 L413 586 L291 713 L221 713 L99 587 L99 579 L170 579 L257 666 L343 579 L413 579 Z " />
<glyph glyph-name="atilde" unicode="&#xe3;" horiz-adv-x="544" d="M400 87 C400 -1 438 -16 518 -3 L517 48 C458 40 461 71 461 124 L462 325 C462 451 360 493 250 493 C186 493 122 479 75 455 L88 395 C129 419 183 430 238 430 C306 430 386 408 386 327 L386 268 C338 295 279 308 224 308 C124 308 34 251 37 141 C40 44 121 -8 210 -8 C283 -8 365 20 400 87 L400 87 Z M385 163 C369 91 291 59 224 59 C170 59 117 83 114 144 C111 213 173 248 237 248 C286 248 341 234 385 209 L385 163 Z M150 607 C177 654 211 648 251 623 C316 583 376 611 404 676 C389 683 379 689 363 697 C339 650 306 654 269 679 C198 720 142 696 110 628 C122 621 138 614 150 607 L150 607 Z " />
<glyph glyph-name="aring" unicode="&#xe5;" horiz-adv-x="544" d="M400 87 C400 -1 438 -16 518 -3 L517 48 C458 40 461 71 461 124 L462 325 C462 451 360 493 250 493 C186 493 122 479 75 455 L88 395 C129 419 183 430 238 430 C306 430 386 408 386 327 L386 268 C338 295 279 308 224 308 C124 308 34 251 37 141 C40 44 121 -8 210 -8 C283 -8 365 20 400 87 L400 87 Z M385 163 C369 91 291 59 224 59 C170 59 117 83 114 144 C111 213 173 248 237 248 C286 248 341 234 385 209 L385 163 Z M379 652 C379 774 161 774 161 652 C161 528 379 528 379 652 L379 652 Z M206 652 C206 722 333 722 333 652 C333 580 206 580 206 652 L206 652 Z " />
<glyph glyph-name="Ugrave" unicode="&#xd9;" horiz-adv-x="707" d="M355 -9 C506 -9 621 81 621 238 L621 700 L539 700 L539 239 C539 128 461 66 355 66 C248 66 170 128 170 239 L170 700 L86 700 L86 238 C86 81 203 -9 355 -9 L355 -9 Z M395 773 L395 780 L320 912 L248 883 L248 876 L329 773 L395 773 Z " />
<glyph glyph-name="Uacute" unicode="&#xda;" horiz-adv-x="707" d="M355 -9 C506 -9 621 81 621 238 L621 700 L539 700 L539 239 C539 128 461 66 355 66 C248 66 170 128 170 239 L170 700 L86 700 L86 238 C86 81 203 -9 355 -9 L355 -9 Z M382 770 L463 873 L463 880 L391 909 L316 777 L316 770 L382 770 Z " />
<glyph glyph-name="Ucircumflex" unicode="&#xdb;" horiz-adv-x="707" d="M355 -9 C506 -9 621 81 621 238 L621 700 L539 700 L539 239 C539 128 461 66 355 66 C248 66 170 128 170 239 L170 700 L86 700 L86 238 C86 81 203 -9 355 -9 L355 -9 Z M530 769 L530 776 L392 909 L313 909 L174 777 L174 769 L255 769 L353 860 L451 769 L530 769 Z " />
<glyph glyph-name="Udieresis" unicode="&#xdc;" horiz-adv-x="707" d="M355 -9 C506 -9 621 81 621 238 L621 700 L539 700 L539 239 C539 128 461 66 355 66 C248 66 170 128 170 239 L170 700 L86 700 L86 238 C86 81 203 -9 355 -9 L355 -9 Z M469 769 C496 769 518 787 518 814 C518 842 496 860 469 860 C441 860 420 842 420 814 C420 787 441 769 469 769 L469 769 Z M234 769 C262 769 284 787 284 814 C284 842 262 860 234 860 C207 860 185 842 185 814 C185 787 207 769 234 769 L234 769 Z " />
<glyph glyph-name="ugrave" unicode="&#xf9;" horiz-adv-x="587" d="M417 482 L417 202 C417 112 358 56 274 56 C194 56 148 113 149 201 L149 482 L70 482 L70 201 C70 82 122 -8 251 -8 C324 -8 386 8 423 75 C418 -9 478 -14 553 -1 L552 53 C502 48 495 58 495 129 L495 482 L417 482 Z M331 587 L331 594 L260 719 L191 692 L191 685 L268 587 L331 587 Z " />
<glyph glyph-name="uacute" unicode="&#xfa;" horiz-adv-x="587" d="M417 482 L417 202 C417 112 358 56 274 56 C194 56 148 113 149 201 L149 482 L70 482 L70 201 C70 82 122 -8 251 -8 C324 -8 386 8 423 75 C418 -9 478 -14 553 -1 L552 53 C502 48 495 58 495 129 L495 482 L417 482 Z M304 584 L381 681 L381 687 L313 714 L242 590 L242 584 L304 584 Z " />
<glyph glyph-name="ucircumflex" unicode="&#xfb;" horiz-adv-x="587" d="M417 482 L417 202 C417 112 358 56 274 56 C194 56 148 113 149 201 L149 482 L70 482 L70 201 C70 82 122 -8 251 -8 C324 -8 386 8 423 75 C418 -9 478 -14 553 -1 L552 53 C502 48 495 58 495 129 L495 482 L417 482 Z M455 578 L455 584 L323 711 L247 711 L115 585 L115 578 L192 578 L286 665 L379 578 L455 578 Z " />
<glyph glyph-name="udieresis" unicode="&#xfc;" horiz-adv-x="587" d="M417 482 L417 202 C417 112 358 56 274 56 C194 56 148 113 149 201 L149 482 L70 482 L70 201 C70 82 122 -8 251 -8 C324 -8 386 8 423 75 C418 -9 478 -14 553 -1 L552 53 C502 48 495 58 495 129 L495 482 L417 482 Z M392 600 C419 600 440 617 440 644 C440 671 419 688 392 688 C365 688 344 671 344 644 C344 617 365 600 392 600 L392 600 Z M163 600 C190 600 212 617 212 644 C212 671 190 688 163 688 C136 688 115 671 115 644 C115 617 136 600 163 600 L163 600 Z " />
<glyph glyph-name="Amacron" unicode="&#x100;" horiz-adv-x="706" d="M528 173 L610 0 L696 0 L696 11 L373 703 L335 703 L9 11 L9 0 L96 0 L178 173 L528 173 Z M353 572 L500 245 L206 245 L353 572 Z M199 770 L496 770 L496 831 L199 831 L199 770 Z " />
<glyph glyph-name="amacron" unicode="&#x101;" horiz-adv-x="544" d="M400 87 C400 -1 438 -16 518 -3 L517 48 C458 40 461 71 461 124 L462 325 C462 451 360 493 250 493 C186 493 122 479 75 455 L88 395 C129 419 183 430 238 430 C306 430 386 408 386 327 L386 268 C338 295 279 308 224 308 C124 308 34 251 37 141 C40 44 121 -8 210 -8 C283 -8 365 20 400 87 L400 87 Z M385 163 C369 91 291 59 224 59 C170 59 117 83 114 144 C111 213 173 248 237 248 C286 248 341 234 385 209 L385 163 Z M112 612 L409 612 L409 673 L112 673 L112 612 Z " />
<glyph glyph-name="Abreve" unicode="&#x102;" horiz-adv-x="706" d="M528 173 L610 0 L696 0 L696 11 L373 703 L335 703 L9 11 L9 0 L96 0 L178 173 L528 173 Z M353 572 L500 245 L206 245 L353 572 Z M181 897 C201 715 505 713 525 897 L457 897 C438 798 269 797 249 897 L181 897 Z " />
<glyph glyph-name="abreve" unicode="&#x103;" horiz-adv-x="544" d="M400 87 C400 -1 438 -16 518 -3 L517 48 C458 40 461 71 461 124 L462 325 C462 451 360 493 250 493 C186 493 122 479 75 455 L88 395 C129 419 183 430 238 430 C306 430 386 408 386 327 L386 268 C338 295 279 308 224 308 C124 308 34 251 37 141 C40 44 121 -8 210 -8 C283 -8 365 20 400 87 L400 87 Z M385 163 C369 91 291 59 224 59 C170 59 117 83 114 144 C111 213 173 248 237 248 C286 248 341 234 385 209 L385 163 Z M102 717 C119 544 398 542 416 717 L353 717 C337 622 184 625 164 717 L102 717 Z " />
<glyph glyph-name="Aogonek" unicode="&#x104;" horiz-adv-x="706" d="M353 564 L500 245 L206 245 L353 564 Z M528 173 L609 2 C563 -35 535 -86 559 -140 C591 -215 690 -203 748 -169 L739 -117 C701 -139 647 -155 621 -108 C594 -51 651 -13 696 0 L696 11 L373 703 L335 703 C226 471 114 243 9 11 L9 0 L96 0 L178 173 L528 173 Z " />
<glyph glyph-name="aogonek" unicode="&#x105;" horiz-adv-x="543" d="M384 158 C368 86 290 54 223 54 C168 54 116 83 113 144 C110 211 172 251 236 251 C285 251 340 237 384 212 L384 158 Z M399 87 C402 40 406 9 439 -2 C399 -27 370 -74 389 -118 C416 -191 507 -177 561 -148 L553 -102 C521 -121 467 -137 444 -98 C419 -57 469 3 517 -2 L516 45 C457 37 460 68 460 121 L461 325 C461 451 359 493 249 493 C185 493 121 479 74 455 L87 397 C128 421 182 432 237 432 C305 432 385 408 385 327 L385 265 C337 292 278 305 223 305 C123 305 33 250 36 139 C39 45 120 -8 209 -8 C282 -8 364 20 399 87 L399 87 Z " />
<glyph glyph-name="Cacute" unicode="&#x106;" horiz-adv-x="762" d="M50 350 C50 130 209 -8 404 -8 C544 -8 679 67 719 224 L638 224 C601 123 510 69 403 69 C242 69 135 192 135 350 C135 513 243 634 404 631 C505 631 591 584 634 489 L715 489 C673 635 539 708 404 708 C207 711 50 569 50 350 L50 350 Z M428 773 L509 876 L509 883 L437 912 L362 780 L362 773 L428 773 Z " />
<glyph glyph-name="cacute" unicode="&#x107;" horiz-adv-x="567" d="M524 335 C456 575 45 541 45 243 C45 -57 464 -93 529 162 L453 162 C391 1 124 36 124 243 C124 446 386 481 449 335 L524 335 Z M310 579 L388 673 L388 680 L319 706 L246 586 L246 579 L310 579 Z " />
<glyph glyph-name="Ccircumflex" unicode="&#x108;" horiz-adv-x="762" d="M50 350 C50 130 209 -8 404 -8 C544 -8 679 67 719 224 L638 224 C601 123 510 69 403 69 C242 69 135 192 135 350 C135 513 243 634 404 631 C505 631 591 584 634 489 L715 489 C673 635 539 708 404 708 C207 711 50 569 50 350 L50 350 Z M566 776 L566 783 L428 916 L349 916 L210 784 L210 776 L291 776 L389 867 L487 776 L566 776 Z " />
<glyph glyph-name="ccircumflex" unicode="&#x109;" horiz-adv-x="567" d="M524 335 C456 575 45 541 45 243 C45 -57 464 -93 529 162 L453 162 C391 1 124 36 124 243 C124 446 386 481 449 335 L524 335 Z M462 574 L462 580 L336 707 L263 707 L136 581 L136 574 L210 574 L300 661 L390 574 L462 574 Z " />
<glyph glyph-name="Cdotaccent" unicode="&#x10a;" horiz-adv-x="762" d="M50 350 C50 130 209 -8 404 -8 C544 -8 679 67 719 224 L638 224 C601 123 510 69 403 69 C242 69 135 192 135 350 C135 513 243 634 404 631 C505 631 591 584 634 489 L715 489 C673 635 539 708 404 708 C207 711 50 569 50 350 L50 350 Z M403 774 C431 774 455 793 455 820 C455 851 431 869 403 869 C376 869 353 851 353 820 C353 793 376 774 403 774 L403 774 Z " />
<glyph glyph-name="cdotaccent" unicode="&#x10b;" horiz-adv-x="567" d="M524 335 C456 575 45 541 45 243 C45 -57 464 -93 529 162 L453 162 C391 1 124 36 124 243 C124 446 386 481 449 335 L524 335 Z M296 596 C321 596 342 612 342 636 C342 663 321 678 296 678 C272 678 251 663 251 636 C251 612 272 596 296 596 L296 596 Z " />
<glyph glyph-name="Ccaron" unicode="&#x10c;" horiz-adv-x="762" d="M50 350 C50 130 209 -8 404 -8 C544 -8 679 67 719 224 L638 224 C601 123 510 69 403 69 C242 69 135 192 135 350 C135 513 243 634 404 631 C505 631 591 584 634 489 L715 489 C673 635 539 708 404 708 C207 711 50 569 50 350 L50 350 Z M216 914 L216 907 L351 775 L429 775 L565 905 L565 914 L486 914 L389 823 L293 914 L216 914 Z " />
<glyph glyph-name="ccaron" unicode="&#x10d;" horiz-adv-x="567" d="M524 335 C456 575 45 541 45 243 C45 -57 464 -93 529 162 L453 162 C391 1 124 36 124 243 C124 446 386 481 449 335 L524 335 Z M126 709 L126 703 L259 573 L335 573 L470 701 L470 709 L391 709 L297 621 L202 709 L126 709 Z " />
<glyph glyph-name="Dcaron" unicode="&#x10e;" horiz-adv-x="732" d="M93 700 L93 0 L341 0 C555 0 681 155 681 351 C681 543 555 700 341 700 L93 700 Z M177 76 L177 623 L339 623 C499 623 598 505 598 350 C598 193 499 76 339 76 L177 76 Z M141 899 L141 893 L273 765 L348 765 L481 891 L481 899 L404 899 L310 812 L216 899 L141 899 Z " />
<glyph glyph-name="dcaron" unicode="&#x10f;" horiz-adv-x="601" d="M441 81 C441 -1 486 -15 564 -2 L563 55 C494 47 506 94 506 159 L506 732 L428 732 L428 441 C256 555 45 459 45 242 C45 107 123 -9 267 -9 C344 -8 408 30 441 103 L441 81 Z M430 221 C427 134 370 61 278 61 C174 61 124 146 124 242 C124 419 296 470 430 369 L430 221 Z M662 684 C662 691 663 694 660 701 C655 721 636 734 613 734 C585 734 564 716 564 688 C564 665 579 650 599 643 L578 572 L628 572 L656 660 C659 669 661 677 662 684 L662 684 Z " />
<glyph glyph-name="Dcroat" unicode="&#x110;" horiz-adv-x="734" d="M15 314 L95 314 L95 0 L343 0 C557 0 683 161 683 351 C683 537 557 700 343 700 L95 700 L95 378 L15 378 L15 314 Z M179 76 L179 314 L305 314 L305 378 L179 378 L179 623 L341 623 C501 623 600 499 600 350 C600 199 501 76 341 76 L179 76 Z " />
<glyph glyph-name="dcroat" unicode="&#x111;" horiz-adv-x="599" d="M430 218 C427 131 370 59 278 59 C174 59 124 144 124 240 C124 417 296 468 430 367 L430 218 Z M441 78 C441 3 487 -17 564 -4 L563 44 C494 36 506 84 506 147 L506 580 L589 580 L589 631 L506 631 L506 730 L428 730 L428 631 L324 631 L324 580 L428 580 L428 438 C256 552 45 456 45 240 C45 105 123 -11 267 -11 C344 -11 412 22 441 95 L441 78 Z " />
<glyph glyph-name="Emacron" unicode="&#x112;" horiz-adv-x="569" d="M500 700 L93 700 L93 0 L511 0 L511 77 L177 77 L177 325 L489 325 L489 398 L177 398 L177 627 L500 627 L500 700 Z M151 777 L448 777 L448 838 L151 838 L151 777 Z " />
<glyph glyph-name="emacron" unicode="&#x113;" horiz-adv-x="554" d="M292 493 C160 493 50 406 45 254 C40 90 153 -11 313 -11 C372 -11 433 3 490 30 L478 89 C422 66 370 54 315 54 C206 54 118 122 123 233 L506 233 C533 392 456 492 292 493 L292 493 Z M292 431 C378 431 445 384 440 293 L126 293 C139 380 204 431 292 431 L292 431 Z M143 609 L440 609 L440 670 L143 670 L143 609 Z " />
<glyph glyph-name="Ebreve" unicode="&#x114;" horiz-adv-x="569" d="M500 700 L93 700 L93 0 L511 0 L511 77 L177 77 L177 325 L489 325 L489 398 L177 398 L177 627 L500 627 L500 700 Z M121 905 C138 726 440 724 459 905 L392 905 C373 808 208 808 188 905 L121 905 Z " />
<glyph glyph-name="ebreve" unicode="&#x115;" horiz-adv-x="554" d="M292 493 C160 493 50 406 45 254 C40 90 153 -11 313 -11 C372 -11 433 3 490 30 L478 89 C422 66 370 54 315 54 C206 54 118 122 123 233 L506 233 C533 392 456 492 292 493 L292 493 Z M292 431 C378 431 445 384 440 293 L126 293 C139 380 204 431 292 431 L292 431 Z M124 696 C144 531 413 531 433 696 L372 696 C353 608 203 605 186 696 L124 696 Z " />
<glyph glyph-name="Edotaccent" unicode="&#x116;" horiz-adv-x="569" d="M500 700 L93 700 L93 0 L511 0 L511 77 L177 77 L177 325 L489 325 L489 398 L177 398 L177 627 L500 627 L500 700 Z M304 781 C331 781 354 799 354 826 C354 855 331 873 304 873 C277 873 255 855 255 826 C255 799 277 781 304 781 L304 781 Z " />
<glyph glyph-name="edotaccent" unicode="&#x117;" horiz-adv-x="554" d="M292 493 C160 493 50 406 45 254 C40 90 153 -11 313 -11 C372 -11 433 3 490 30 L478 89 C422 66 370 54 315 54 C206 54 118 122 123 233 L506 233 C533 392 456 492 292 493 L292 493 Z M292 431 C378 431 445 384 440 293 L126 293 C139 380 204 431 292 431 L292 431 Z M295 599 C322 599 345 616 345 641 C345 668 322 684 295 684 C268 684 247 668 247 641 C247 616 268 599 295 599 L295 599 Z " />
<glyph glyph-name="Eogonek" unicode="&#x118;" horiz-adv-x="558" d="M493 700 L93 700 L93 0 L348 0 C301 -29 276 -90 295 -138 C324 -228 441 -208 499 -174 L490 -122 C450 -143 380 -163 356 -113 C337 -76 361 -24 406 0 L498 0 L498 77 L177 77 L177 325 L477 325 L477 398 L177 398 L177 626 L493 626 L493 700 Z " />
<glyph glyph-name="eogonek" unicode="&#x119;" horiz-adv-x="554" d="M125 285 C136 377 201 431 292 431 C380 431 451 382 440 285 L125 285 Z M292 493 C160 493 50 406 45 254 C40 100 141 0 285 -8 C308 -11 331 -9 355 -6 C324 -35 305 -75 322 -115 C351 -195 451 -184 511 -153 L502 -103 C464 -125 404 -140 377 -95 C358 -60 388 -17 422 4 C445 11 467 19 490 30 L478 89 C431 69 372 55 317 55 C206 55 124 117 124 233 L506 233 C533 392 456 492 292 493 L292 493 Z " />
<glyph glyph-name="Ecaron" unicode="&#x11a;" horiz-adv-x="569" d="M500 700 L93 700 L93 0 L511 0 L511 77 L177 77 L177 325 L489 325 L489 398 L177 398 L177 627 L500 627 L500 700 Z M132 898 L132 892 L265 762 L341 762 L476 890 L476 898 L397 898 L303 810 L208 898 L132 898 Z " />
<glyph glyph-name="ecaron" unicode="&#x11b;" horiz-adv-x="554" d="M292 493 C160 493 50 406 45 254 C40 90 153 -11 313 -11 C372 -11 433 3 490 30 L478 89 C422 66 370 54 315 54 C206 54 118 122 123 233 L506 233 C533 392 456 492 292 493 L292 493 Z M292 431 C378 431 445 384 440 293 L126 293 C139 380 204 431 292 431 L292 431 Z M116 702 L116 696 L244 569 L318 569 L447 694 L447 702 L372 702 L281 616 L190 702 L116 702 Z " />
<glyph glyph-name="Gcircumflex" unicode="&#x11c;" horiz-adv-x="777" d="M50 351 C50 134 201 -10 399 -10 C540 -10 657 57 709 186 C732 242 739 304 736 368 L410 368 L410 297 L659 297 C646 145 543 68 399 68 C236 68 134 188 134 351 C134 510 236 634 399 634 C504 634 591 601 628 500 L710 500 C670 646 536 710 399 710 C204 710 50 568 50 351 L50 351 Z M579 783 L579 790 L441 923 L362 923 L223 791 L223 783 L304 783 L402 874 L500 783 L579 783 Z " />
<glyph glyph-name="gcircumflex" unicode="&#x11d;" horiz-adv-x="576" d="M427 -40 C427 -241 225 -223 93 -151 L80 -213 C261 -314 503 -285 503 -34 L503 445 C443 472 379 489 311 489 C162 489 46 408 46 239 C46 11 244 -80 427 36 L427 -40 Z M426 104 C290 3 124 54 124 240 C124 363 209 423 309 423 C348 423 387 415 426 400 L426 104 Z M480 567 L480 574 L351 707 L277 707 L147 575 L147 567 L222 567 L314 658 L406 567 L480 567 Z " />
<glyph glyph-name="Gbreve" unicode="&#x11e;" horiz-adv-x="777" d="M50 351 C50 134 201 -10 399 -10 C540 -10 657 57 709 186 C732 242 739 304 736 368 L410 368 L410 297 L659 297 C646 145 543 68 399 68 C236 68 134 188 134 351 C134 510 236 634 399 634 C504 634 591 601 628 500 L710 500 C670 646 536 710 399 710 C204 710 50 568 50 351 L50 351 Z M214 910 C234 723 546 721 566 910 L496 910 C477 809 304 808 284 910 L214 910 Z " />
<glyph glyph-name="gbreve" unicode="&#x11f;" horiz-adv-x="576" d="M427 -40 C427 -241 225 -223 93 -151 L80 -213 C261 -314 503 -285 503 -34 L503 445 C443 472 379 489 311 489 C162 489 46 408 46 239 C46 11 244 -80 427 36 L427 -40 Z M426 104 C290 3 124 54 124 240 C124 363 209 423 309 423 C348 423 387 415 426 400 L426 104 Z M133 705 C150 530 440 528 458 705 L393 705 C377 609 217 612 197 705 L133 705 Z " />
<glyph glyph-name="Gdotaccent" unicode="&#x120;" horiz-adv-x="777" d="M50 351 C50 134 201 -10 399 -10 C540 -10 657 57 709 186 C732 242 739 304 736 368 L410 368 L410 297 L659 297 C646 145 543 68 399 68 C236 68 134 188 134 351 C134 510 236 634 399 634 C504 634 591 601 628 500 L710 500 C670 646 536 710 399 710 C204 710 50 568 50 351 L50 351 Z M403 769 C431 769 455 787 455 812 C455 841 431 858 403 858 C376 858 353 841 353 812 C353 787 376 769 403 769 L403 769 Z " />
<glyph glyph-name="gdotaccent" unicode="&#x121;" horiz-adv-x="576" d="M427 -40 C427 -241 225 -223 93 -151 L80 -213 C261 -314 503 -285 503 -34 L503 445 C443 472 379 489 311 489 C162 489 46 408 46 239 C46 11 244 -80 427 36 L427 -40 Z M426 104 C290 3 124 54 124 240 C124 363 209 423 309 423 C348 423 387 415 426 400 L426 104 Z M298 603 C323 603 345 621 345 646 C345 674 323 690 298 690 C273 690 252 674 252 646 C252 621 273 603 298 603 L298 603 Z " />
<glyph glyph-name="Gcommaaccent" unicode="&#x122;" horiz-adv-x="777" d="M457 -142 C458 -139 457 -133 456 -126 C449 -105 431 -92 408 -92 C380 -92 359 -110 359 -138 C359 -161 374 -176 394 -183 L372 -261 L421 -261 L451 -166 C454 -157 456 -149 457 -142 L457 -142 Z M50 351 C50 134 201 -10 399 -10 C540 -10 657 57 709 186 C732 242 739 304 736 368 L410 368 L410 297 L659 297 C646 145 543 68 399 68 C236 68 134 188 134 351 C134 510 236 634 399 634 C504 634 591 601 628 500 L710 500 C670 646 536 710 399 710 C204 710 50 568 50 351 L50 351 Z " />
<glyph glyph-name="gcommaaccent" unicode="&#x123;" horiz-adv-x="576" d="M427 -40 C427 -241 225 -223 93 -151 L80 -213 C261 -314 503 -285 503 -34 L503 445 C443 472 379 489 311 489 C162 489 46 408 46 239 C46 11 244 -80 427 36 L427 -40 Z M426 104 C290 3 124 54 124 240 C124 363 209 423 309 423 C348 423 387 415 426 400 L426 104 Z M274 620 C273 615 274 611 275 604 C279 587 297 574 320 574 C347 574 368 591 368 616 C368 637 354 652 333 657 L354 723 L305 723 L278 642 C275 635 275 628 274 620 L274 620 Z " />
<glyph glyph-name="Hcircumflex" unicode="&#x124;" horiz-adv-x="723" d="M630 0 L630 700 L546 700 L546 405 L176 405 L176 700 L93 700 L93 0 L176 0 L176 328 L546 328 L546 0 L630 0 Z M553 765 L553 772 L415 905 L336 905 L197 773 L197 765 L278 765 L376 856 L474 765 L553 765 Z " />
<glyph glyph-name="hcircumflex" unicode="&#x125;" horiz-adv-x="584" d="M514 0 L514 284 C514 409 452 493 320 494 C245 494 198 472 155 419 L155 731 L76 731 L76 0 L155 0 L155 281 C155 370 213 430 300 429 C384 429 435 376 434 284 L434 0 L514 0 Z M477 770 L477 777 L344 909 L268 909 L134 778 L134 770 L212 770 L307 860 L401 770 L477 770 Z " />
<glyph glyph-name="Hbar" unicode="&#x126;" horiz-adv-x="733" d="M30 524 L98 524 L98 0 L181 0 L181 312 L551 312 L551 0 L635 0 L635 524 L705 524 L705 582 L635 582 L635 700 L551 700 L551 582 L181 582 L181 700 L98 700 L98 582 L30 582 L30 524 Z M181 389 L181 524 L551 524 L551 389 L181 389 Z " />
<glyph glyph-name="hbar" unicode="&#x127;" horiz-adv-x="583" d="M513 0 L513 284 C513 409 451 493 320 494 C243 494 181 456 154 392 L154 580 L248 580 L248 636 L154 636 L154 731 L76 731 L76 636 L10 636 L10 580 L76 580 L76 0 L154 0 L154 281 C154 370 214 429 299 429 C383 429 434 376 433 284 L433 0 L513 0 Z " />
<glyph glyph-name="Itilde" unicode="&#x128;" horiz-adv-x="400" d="M242 67 L242 634 L355 634 L355 700 L45 700 L45 634 L158 634 L158 67 L37 67 L37 0 L363 0 L363 67 L242 67 Z M97 755 C125 804 162 799 205 772 C276 729 340 758 369 829 C354 836 342 843 326 851 C299 802 265 805 225 832 C149 876 89 850 54 777 L97 755 Z " />
<glyph glyph-name="itilde" unicode="&#x129;" horiz-adv-x="235" d="M157 481 L78 481 L78 0 L157 0 L157 481 Z M17 609 C41 657 74 652 111 625 C174 584 230 612 255 681 C242 688 232 695 217 703 C194 655 164 659 129 684 C62 728 10 702 -21 630 C-9 623 5 614 17 609 L17 609 Z " />
<glyph glyph-name="Imacron" unicode="&#x12a;" horiz-adv-x="400" d="M242 67 L242 634 L355 634 L355 700 L45 700 L45 634 L158 634 L158 67 L37 67 L37 0 L363 0 L363 67 L242 67 Z M57 771 L354 771 L354 832 L57 832 L57 771 Z " />
<glyph glyph-name="imacron" unicode="&#x12b;" horiz-adv-x="235" d="M157 481 L78 481 L78 0 L157 0 L157 481 Z M-17 613 L230 613 L230 675 L-17 675 L-17 613 Z " />
<glyph glyph-name="Ibreve" unicode="&#x12c;" horiz-adv-x="400" d="M242 67 L242 634 L355 634 L355 700 L45 700 L45 634 L158 634 L158 67 L37 67 L37 0 L363 0 L363 67 L242 67 Z M35 890 C55 705 348 704 368 890 L302 890 C282 791 122 790 101 890 L35 890 Z " />
<glyph glyph-name="ibreve" unicode="&#x12d;" horiz-adv-x="235" d="M157 481 L78 481 L78 0 L157 0 L157 481 Z M-39 700 C-23 528 234 526 250 700 L192 700 C177 608 34 606 18 700 L-39 700 Z " />
<glyph glyph-name="Iogonek" unicode="&#x12e;" horiz-adv-x="402" d="M243 69 L243 632 L356 632 L356 700 L46 700 L46 632 L159 632 L159 69 L38 69 L38 0 L178 0 C137 -33 110 -82 131 -133 C163 -220 271 -211 335 -174 L326 -120 C287 -141 218 -163 191 -112 C170 -72 202 -24 236 0 L364 0 L364 69 L243 69 Z " />
<glyph glyph-name="iogonek" unicode="&#x12f;" horiz-adv-x="234" d="M69 641 C69 577 166 577 166 641 C166 704 69 704 69 641 L69 641 Z M156 478 L78 478 L78 1 C36 -31 5 -82 27 -133 C59 -220 167 -210 231 -173 L221 -120 C182 -141 114 -162 87 -111 C66 -72 96 -24 130 0 L156 0 L156 478 Z " />
<glyph glyph-name="Idotaccent" unicode="&#x130;" horiz-adv-x="400" d="M242 67 L242 634 L355 634 L355 700 L45 700 L45 634 L158 634 L158 67 L37 67 L37 0 L363 0 L363 67 L242 67 Z M200 750 C228 750 254 768 254 795 C254 824 228 843 200 843 C171 843 146 824 146 795 C146 768 171 750 200 750 L200 750 Z " />
<glyph glyph-name="IJ" unicode="&#x132;" horiz-adv-x="1039" d="M242 67 L242 634 L355 634 L355 700 L45 700 L45 634 L158 634 L158 67 L37 67 L37 0 L363 0 L363 67 L242 67 Z M953 700 L698 700 L698 626 L869 626 L869 236 C869 127 795 66 690 66 C585 66 513 125 513 236 L513 308 L434 308 L434 235 C434 83 542 -10 690 -10 C838 -10 953 80 953 235 L953 700 Z " />
<glyph glyph-name="ij" unicode="&#x133;" horiz-adv-x="467" d="M67 641 C67 574 166 574 166 641 C166 707 67 707 67 641 L67 641 Z M155 478 L77 478 L77 0 L155 0 L155 478 Z M311 480 L311 -56 C311 -152 296 -208 189 -189 L187 -250 C332 -277 388 -209 388 -57 L389 480 L311 480 Z M300 641 C300 574 399 574 399 641 C399 707 300 707 300 641 L300 641 Z " />
<glyph glyph-name="Jcircumflex" unicode="&#x134;" horiz-adv-x="639" d="M553 700 L298 700 L298 626 L469 626 L469 236 C469 127 395 66 290 66 C185 66 113 125 113 236 L113 308 L34 308 L34 235 C34 83 142 -10 290 -10 C438 -10 553 80 553 235 L553 700 Z M589 773 L589 780 L459 914 L385 914 L254 781 L254 773 L330 773 L422 865 L515 773 L589 773 Z " />
<glyph glyph-name="jcircumflex" unicode="&#x135;" horiz-adv-x="234" d="M78 480 L78 -56 C78 -152 63 -208 -44 -189 L-46 -250 C99 -277 155 -209 155 -57 L156 480 L78 480 Z M263 561 L263 568 L146 710 L79 710 L-39 570 L-39 561 L30 561 L113 658 L196 561 L263 561 Z " />
<glyph glyph-name="Kcommaaccent" unicode="&#x136;" horiz-adv-x="666" d="M408 -116 C409 -113 408 -107 407 -100 C400 -79 382 -66 359 -66 C331 -66 310 -84 310 -112 C310 -135 325 -150 345 -157 L323 -235 L372 -235 L402 -140 C405 -131 407 -123 408 -116 L408 -116 Z M176 700 L93 700 L93 0 L176 0 L176 310 C215 310 293 312 330 323 L552 0 L647 0 L647 12 L403 357 C452 400 476 473 497 545 C518 618 549 652 628 643 L628 699 C497 723 450 662 423 569 C405 503 379 426 335 400 C304 381 243 380 176 380 L176 700 Z " />
<glyph glyph-name="kcommaaccent" unicode="&#x137;" horiz-adv-x="535" d="M342 -129 C343 -126 342 -120 341 -113 C334 -92 316 -79 293 -79 C265 -79 244 -97 244 -125 C244 -148 259 -163 279 -170 L257 -248 L306 -248 L336 -153 C339 -144 341 -136 342 -129 L342 -129 Z M155 283 L155 731 L76 731 L76 0 L155 0 L155 219 L218 219 C239 219 259 221 277 225 L426 0 L507 0 L507 9 L345 249 C451 290 484 373 484 483 L409 483 C409 344 351 283 219 283 L155 283 Z " />
<glyph glyph-name="kgreenlandic" unicode="&#x138;" horiz-adv-x="532" d="M152 268 L152 482 L73 482 L73 0 L152 0 L152 206 L215 206 C236 206 256 208 274 212 L423 0 L504 0 L504 9 L342 236 C446 276 483 373 480 483 L406 483 C402 334 341 268 216 268 L152 268 Z " />
<glyph glyph-name="Lacute" unicode="&#x139;" horiz-adv-x="523" d="M177 700 L93 700 L93 0 L507 0 L507 75 L177 75 L177 700 Z M176 802 L257 905 L257 912 L185 941 L110 809 L110 802 L176 802 Z " />
<glyph glyph-name="lacute" unicode="&#x13a;" horiz-adv-x="275" d="M71 733 L71 174 C71 25 127 -26 274 -2 L271 60 C170 47 150 80 150 174 L150 733 L71 733 Z M150 816 L225 911 L225 918 L158 945 L89 823 L89 816 L150 816 Z " />
<glyph glyph-name="Lcommaaccent" unicode="&#x13b;" horiz-adv-x="523" d="M360 -142 C361 -139 360 -133 359 -126 C352 -105 334 -92 311 -92 C283 -92 262 -110 262 -138 C262 -161 277 -176 297 -183 L275 -261 L324 -261 L354 -166 C357 -157 359 -149 360 -142 L360 -142 Z M177 700 L93 700 L93 0 L507 0 L507 75 L177 75 L177 700 Z " />
<glyph glyph-name="lcommaaccent" unicode="&#x13c;" horiz-adv-x="275" d="M232 -131 C233 -128 232 -122 231 -115 C224 -94 206 -81 183 -81 C155 -81 134 -99 134 -127 C134 -150 149 -165 169 -172 L147 -250 L196 -250 L226 -155 C229 -146 231 -138 232 -131 L232 -131 Z M71 733 L71 174 C71 25 127 -26 274 -2 L271 60 C170 47 150 80 150 174 L150 733 L71 733 Z " />
<glyph glyph-name="Lcaron" unicode="&#x13d;" horiz-adv-x="524" d="M177 700 L93 700 L93 0 L507 0 L507 75 L177 75 L177 700 Z M442 649 C442 656 443 660 440 665 C435 685 418 697 395 697 C368 697 349 680 349 653 C349 632 363 617 382 610 L362 542 L410 542 L436 626 C439 635 441 642 442 649 L442 649 Z " />
<glyph glyph-name="lcaron" unicode="&#x13e;" horiz-adv-x="275" d="M71 733 L71 174 C71 25 127 -26 274 -2 L271 60 C170 47 150 80 150 174 L150 733 L71 733 Z M316 679 C316 686 317 688 314 695 C310 714 291 726 270 726 C243 726 223 708 223 683 C223 662 237 647 256 640 L236 573 L284 573 L311 656 C314 664 315 672 316 679 L316 679 Z " />
<glyph glyph-name="Ldot" unicode="&#x13f;" horiz-adv-x="523" d="M177 700 L93 700 L93 0 L507 0 L507 75 L177 75 L177 700 Z M359 331 C386 331 407 350 407 378 C407 407 386 426 359 426 C334 426 312 407 312 378 C312 350 334 331 359 331 L359 331 Z " />
<glyph glyph-name="ldot" unicode="&#x140;" horiz-adv-x="333" d="M71 733 L71 174 C71 25 127 -26 274 -2 L271 60 C170 47 150 80 150 174 L150 733 L71 733 Z M282 330 C306 330 327 348 327 376 C327 405 306 424 282 424 C257 424 236 405 236 376 C236 348 257 330 282 330 L282 330 Z " />
<glyph glyph-name="Nacute" unicode="&#x143;" horiz-adv-x="746" d="M626 -1 L653 -1 L653 701 L569 701 L569 373 L578 172 L122 702 L93 702 L93 0 L176 0 L176 337 L169 529 L626 -1 Z M385 756 L466 859 L466 866 L394 895 L319 763 L319 756 L385 756 Z " />
<glyph glyph-name="nacute" unicode="&#x144;" horiz-adv-x="598" d="M528 0 L528 286 C528 404 462 492 335 492 C267 492 208 475 165 410 C165 503 91 491 35 483 L36 421 C87 426 92 409 92 344 L92 0 L170 0 L170 289 C170 370 232 427 314 427 C393 427 449 373 449 286 L449 0 L528 0 Z M315 584 L390 679 L390 686 L323 713 L254 591 L254 584 L315 584 Z " />
<glyph glyph-name="Ncommaaccent" unicode="&#x145;" horiz-adv-x="746" d="M444 -130 C445 -127 444 -121 443 -114 C436 -93 418 -80 395 -80 C367 -80 346 -98 346 -126 C346 -149 361 -164 381 -171 L359 -249 L408 -249 L438 -154 C441 -145 443 -137 444 -130 L444 -130 Z M626 -1 L653 -1 L653 701 L569 701 L569 373 L578 172 L122 702 L93 702 L93 0 L176 0 L176 337 L169 529 L626 -1 Z " />
<glyph glyph-name="ncommaaccent" unicode="&#x146;" horiz-adv-x="598" d="M372 -138 C373 -135 372 -129 371 -122 C364 -101 346 -88 323 -88 C295 -88 274 -106 274 -134 C274 -157 289 -172 309 -179 L287 -257 L336 -257 L366 -162 C369 -153 371 -145 372 -138 L372 -138 Z M528 0 L528 286 C528 404 462 492 335 492 C267 492 208 475 165 410 C165 503 91 491 35 483 L36 421 C87 426 92 409 92 344 L92 0 L170 0 L170 289 C170 370 232 427 314 427 C393 427 449 373 449 286 L449 0 L528 0 Z " />
<glyph glyph-name="Ncaron" unicode="&#x147;" horiz-adv-x="746" d="M626 -1 L653 -1 L653 701 L569 701 L569 373 L578 172 L122 702 L93 702 L93 0 L176 0 L176 337 L169 529 L626 -1 Z M188 891 L188 884 L326 750 L405 750 L544 882 L544 891 L463 891 L365 799 L267 891 L188 891 Z " />
<glyph glyph-name="ncaron" unicode="&#x148;" horiz-adv-x="598" d="M528 0 L528 286 C528 404 462 492 335 492 C267 492 208 475 165 410 C165 503 91 491 35 483 L36 421 C87 426 92 409 92 344 L92 0 L170 0 L170 289 C170 370 232 427 314 427 C393 427 449 373 449 286 L449 0 L528 0 Z M120 719 L120 712 L258 578 L337 578 L476 710 L476 719 L395 719 L297 627 L199 719 L120 719 Z " />
<glyph glyph-name="napostrophe" unicode="&#x149;" horiz-adv-x="598" d="M528 0 L528 286 C528 404 462 492 335 492 C267 492 208 475 165 410 C165 503 91 491 35 483 L36 421 C87 426 92 409 92 344 L92 0 L170 0 L170 289 C170 370 232 427 314 427 C393 427 449 373 449 286 L449 0 L528 0 Z " />
<glyph glyph-name="Eng" unicode="&#x14a;" horiz-adv-x="746" d="M458 -187 C603 -214 653 -144 653 3 L653 701 L569 701 L569 168 L122 702 L93 702 L93 0 L176 0 L176 541 L582 45 L582 4 C582 -91 567 -146 461 -128 L458 -187 Z " />
<glyph glyph-name="eng" unicode="&#x14b;" horiz-adv-x="594" d="M524 286 C524 404 457 492 332 492 C261 492 194 458 165 393 L165 413 C165 488 98 495 31 484 L33 437 C95 442 89 419 89 345 L89 0 L167 0 L167 282 C167 371 229 427 311 427 C390 427 446 373 446 286 L446 -6 C446 -98 432 -161 325 -142 L322 -198 C467 -225 524 -154 524 -7 L524 286 L524 286 Z " />
<glyph glyph-name="Omacron" unicode="&#x14c;" horiz-adv-x="810" d="M760 350 C760 572 601 712 405 712 C209 712 50 574 50 350 C50 127 207 -11 404 -11 C615 -11 760 138 760 350 L760 350 Z M134 350 C134 522 253 636 405 636 C560 636 676 520 676 350 C676 180 558 66 404 66 C251 66 134 180 134 350 L134 350 Z M253 793 L550 793 L550 854 L253 854 L253 793 Z " />
<glyph glyph-name="omacron" unicode="&#x14d;" horiz-adv-x="598" d="M553 242 C553 577 45 577 45 242 C45 -93 553 -91 553 242 L553 242 Z M124 242 C124 487 475 487 475 242 C475 -4 124 -4 124 242 L124 242 Z M148 598 L445 598 L445 659 L148 659 L148 598 Z " />
<glyph glyph-name="Obreve" unicode="&#x14e;" horiz-adv-x="810" d="M760 350 C760 572 601 712 405 712 C209 712 50 574 50 350 C50 127 207 -11 404 -11 C615 -11 760 138 760 350 L760 350 Z M134 350 C134 522 253 636 405 636 C560 636 676 520 676 350 C676 180 558 66 404 66 C251 66 134 180 134 350 L134 350 Z M218 910 C238 723 550 721 570 910 L500 910 C481 809 308 808 288 910 L218 910 Z " />
<glyph glyph-name="obreve" unicode="&#x14f;" horiz-adv-x="598" d="M553 242 C553 577 45 577 45 242 C45 -93 553 -91 553 242 L553 242 Z M124 242 C124 487 475 487 475 242 C475 -4 124 -4 124 242 L124 242 Z M132 708 C152 532 444 530 464 708 L398 708 C378 613 219 612 198 708 L132 708 Z " />
<glyph glyph-name="Ohungarumlaut" unicode="&#x150;" horiz-adv-x="810" d="M271 769 L335 769 L402 878 L402 885 L330 903 L271 776 L271 769 Z M455 769 L519 769 L585 868 L585 876 L514 897 L455 776 L455 769 Z M760 350 C760 572 601 712 405 712 C209 712 50 574 50 350 C50 127 207 -11 404 -11 C615 -11 760 138 760 350 L760 350 Z M134 350 C134 522 253 636 405 636 C560 636 676 520 676 350 C676 180 558 66 404 66 C251 66 134 180 134 350 L134 350 Z " />
<glyph glyph-name="ohungarumlaut" unicode="&#x151;" horiz-adv-x="598" d="M177 578 L241 578 L308 687 L308 694 L236 712 L177 585 L177 578 Z M361 578 L425 578 L491 677 L491 685 L420 706 L361 585 L361 578 Z M553 242 C553 577 45 577 45 242 C45 -93 553 -91 553 242 L553 242 Z M124 242 C124 487 475 487 475 242 C475 -4 124 -4 124 242 L124 242 Z " />
<glyph glyph-name="Racute" unicode="&#x154;" horiz-adv-x="672" d="M444 268 C542 292 611 368 611 476 C611 603 516 701 372 701 L93 701 L93 0 L177 0 L177 257 L360 257 L554 0 L642 0 L642 12 L444 268 Z M176 326 L176 627 L372 627 C463 627 530 567 530 477 C530 386 461 326 372 326 L176 326 Z M332 769 L413 872 L413 879 L341 908 L266 776 L266 769 L332 769 Z " />
<glyph glyph-name="racute" unicode="&#x155;" horiz-adv-x="433" d="M163 418 C160 492 107 500 32 487 L33 435 C90 440 91 413 91 369 L91 0 L168 0 L168 300 C168 376 232 428 301 428 C338 428 372 416 403 396 L422 462 C389 486 351 498 309 498 C245 498 190 477 163 418 L163 418 Z M229 585 L306 683 L306 690 L237 718 L166 591 L166 585 L229 585 Z " />
<glyph glyph-name="Rcommaaccent" unicode="&#x156;" horiz-adv-x="672" d="M404 -131 C405 -128 404 -122 403 -115 C396 -94 378 -81 355 -81 C327 -81 306 -99 306 -127 C306 -150 321 -165 341 -172 L319 -250 L368 -250 L398 -155 C401 -146 403 -138 404 -131 L404 -131 Z M444 268 C542 292 611 368 611 476 C611 603 516 701 372 701 L93 701 L93 0 L177 0 L177 257 L360 257 L554 0 L642 0 L642 12 L444 268 Z M176 326 L176 627 L372 627 C463 627 530 567 530 477 C530 386 461 326 372 326 L176 326 Z " />
<glyph glyph-name="rcommaaccent" unicode="&#x157;" horiz-adv-x="433" d="M185 -142 C186 -139 185 -133 184 -126 C177 -105 159 -92 136 -92 C108 -92 87 -110 87 -138 C87 -161 102 -176 122 -183 L100 -261 L149 -261 L179 -166 C182 -157 184 -149 185 -142 L185 -142 Z M163 418 C160 492 107 500 32 487 L33 435 C90 440 91 413 91 369 L91 0 L168 0 L168 300 C168 376 232 428 301 428 C338 428 372 416 403 396 L422 462 C389 486 351 498 309 498 C245 498 190 477 163 418 L163 418 Z " />
<glyph glyph-name="Rcaron" unicode="&#x158;" horiz-adv-x="672" d="M444 268 C542 292 611 368 611 476 C611 603 516 701 372 701 L93 701 L93 0 L177 0 L177 257 L360 257 L554 0 L642 0 L642 12 L444 268 Z M176 326 L176 627 L372 627 C463 627 530 567 530 477 C530 386 461 326 372 326 L176 326 Z M133 906 L133 899 L271 765 L350 765 L489 897 L489 906 L408 906 L310 814 L212 906 L133 906 Z " />
<glyph glyph-name="rcaron" unicode="&#x159;" horiz-adv-x="433" d="M163 418 C160 492 107 500 32 487 L33 435 C90 440 91 413 91 369 L91 0 L168 0 L168 300 C168 376 232 428 301 428 C338 428 372 416 403 396 L422 462 C389 486 351 498 309 498 C245 498 190 477 163 418 L163 418 Z M54 710 L54 704 L183 577 L257 577 L387 702 L387 710 L311 710 L219 623 L128 710 L54 710 Z " />
<glyph glyph-name="Sacute" unicode="&#x15a;" horiz-adv-x="646" d="M47 191 C52 47 198 -15 328 -12 C455 -9 599 45 599 195 C599 350 469 375 330 391 C245 402 144 406 144 510 C144 602 240 634 317 637 C397 637 491 609 499 520 L577 520 C572 656 436 715 315 712 C192 712 61 647 61 509 C61 369 189 336 316 323 C411 310 517 308 517 195 C514 93 411 64 327 61 C241 61 133 97 128 191 L47 191 Z M341 774 L422 877 L422 884 L350 913 L275 781 L275 774 L341 774 Z " />
<glyph glyph-name="sacute" unicode="&#x15b;" horiz-adv-x="509" d="M40 136 C48 26 149 -12 254 -12 C366 -9 466 39 466 138 C469 252 363 266 262 279 C173 292 128 304 127 351 C124 407 192 430 253 430 C316 430 378 406 378 354 L453 354 C456 447 353 492 253 492 C153 492 50 449 53 349 C56 249 160 229 255 218 C344 205 390 193 390 138 C387 79 321 51 254 51 C189 51 121 75 116 136 L40 136 Z M277 582 L354 680 L354 686 L285 714 L214 588 L214 582 L277 582 Z " />
<glyph glyph-name="Scircumflex" unicode="&#x15c;" horiz-adv-x="646" d="M47 191 C52 47 198 -15 328 -12 C455 -9 599 45 599 195 C599 350 469 375 330 391 C245 402 144 406 144 510 C144 602 240 634 317 637 C397 637 491 609 499 520 L577 520 C572 656 436 715 315 712 C192 712 61 647 61 509 C61 369 189 336 316 323 C411 310 517 308 517 195 C514 93 411 64 327 61 C241 61 133 97 128 191 L47 191 Z M498 768 L498 775 L360 908 L281 908 L142 776 L142 768 L223 768 L321 859 L419 768 L498 768 Z " />
<glyph glyph-name="scircumflex" unicode="&#x15d;" horiz-adv-x="509" d="M40 136 C48 26 149 -12 254 -12 C366 -9 466 39 466 138 C469 252 363 266 262 279 C173 292 128 304 127 351 C124 407 192 430 253 430 C316 430 378 406 378 354 L453 354 C456 447 353 492 253 492 C153 492 50 449 53 349 C56 249 160 229 255 218 C344 205 390 193 390 138 C387 79 321 51 254 51 C189 51 121 75 116 136 L40 136 Z M414 580 L414 587 L291 711 L220 711 L95 587 L95 580 L168 580 L256 665 L344 580 L414 580 Z " />
<glyph glyph-name="Scedilla" unicode="&#x15e;" horiz-adv-x="646" d="M47 191 C52 54 185 -6 307 -11 L286 -94 C325 -91 382 -107 366 -156 C358 -204 266 -195 229 -166 L225 -213 C286 -258 408 -261 432 -178 C451 -119 414 -77 350 -74 L366 -8 C477 3 599 68 599 195 C599 350 469 375 330 391 C245 402 144 414 144 510 C144 602 240 634 317 637 C397 637 492 606 500 517 L578 517 C573 654 435 715 315 712 C192 712 61 647 61 509 C61 369 189 336 316 323 C411 310 517 301 517 195 C514 103 411 64 327 61 C241 61 133 97 128 191 L47 191 Z " />
<glyph glyph-name="scedilla" unicode="&#x15f;" horiz-adv-x="511" d="M42 136 C50 32 137 -6 235 -11 L222 -73 C257 -70 315 -89 299 -135 C288 -175 202 -168 170 -139 L166 -182 C223 -225 332 -224 356 -150 C373 -95 338 -58 281 -55 L291 -10 C386 1 468 51 468 138 C471 252 365 266 264 279 C175 292 130 304 129 351 C126 407 194 430 255 430 C318 430 380 406 380 354 L455 354 C458 447 355 492 255 492 C155 492 52 449 55 349 C58 249 162 229 257 218 C346 205 392 193 392 138 C389 79 323 51 256 51 C191 51 123 75 118 136 L42 136 Z " />
<glyph glyph-name="Tcommaaccent" unicode="&#x162;" horiz-adv-x="529" d="M224 625 L224 0 L234 0 L213 -82 C251 -79 310 -95 294 -144 C278 -195 191 -186 156 -154 L152 -201 C214 -247 334 -248 360 -166 C379 -107 343 -65 279 -62 L294 0 L305 0 L305 625 L511 625 L511 700 L18 700 L18 625 L224 625 Z " />
<glyph glyph-name="tcommaaccent" unicode="&#x163;" horiz-adv-x="421" d="M205 630 L135 630 L127 480 L24 480 L24 428 L127 423 L127 190 C127 79 165 16 234 -3 L213 -82 C251 -79 310 -95 294 -144 C278 -195 191 -186 156 -154 L152 -201 C214 -247 334 -248 360 -166 C379 -107 343 -65 279 -62 L292 -10 C325 -11 363 -7 406 8 L397 70 C281 27 205 64 205 192 L205 423 L382 423 L382 480 L205 480 L205 630 Z " />
<glyph glyph-name="Tcaron" unicode="&#x164;" horiz-adv-x="549" d="M234 625 L234 0 L315 0 L315 625 L531 625 L531 700 L18 700 L18 625 L234 625 Z M94 908 L94 901 L232 767 L311 767 L450 899 L450 908 L369 908 L271 816 L173 908 L94 908 Z " />
<glyph glyph-name="tcaron" unicode="&#x165;" horiz-adv-x="409" d="M204 630 L139 630 L131 480 L23 480 L23 428 L126 423 L126 185 C126 3 240 -44 405 9 L396 72 C280 29 204 64 204 187 L204 423 L331 423 L331 480 L204 480 L204 630 Z M420 588 C420 595 420 597 419 604 C414 623 397 635 374 635 C347 635 328 619 328 592 C328 569 342 555 361 550 L342 487 L389 487 L415 566 C418 574 420 581 420 588 L420 588 Z " />
<glyph glyph-name="Tbar" unicode="&#x166;" horiz-adv-x="549" d="M117 282 L234 282 L234 0 L315 0 L315 282 L429 282 L429 346 L315 346 L315 625 L521 625 L521 700 L28 700 L28 625 L234 625 L234 346 L117 346 L117 282 Z " />
<glyph glyph-name="tbar" unicode="&#x167;" horiz-adv-x="425" d="M208 630 L138 630 L130 480 L27 480 L27 428 C62 427 95 426 130 423 L130 272 L43 272 L43 215 L130 215 L130 182 C130 0 244 -45 409 8 L400 70 C284 28 208 57 208 184 L208 215 L320 215 L320 272 L208 272 L208 423 L385 423 L385 480 L208 480 L208 630 Z " />
<glyph glyph-name="Utilde" unicode="&#x168;" horiz-adv-x="707" d="M355 -9 C506 -9 621 81 621 238 L621 700 L539 700 L539 239 C539 128 461 66 355 66 C248 66 170 128 170 239 L170 700 L86 700 L86 238 C86 81 203 -9 355 -9 L355 -9 Z M246 770 C274 819 311 814 354 787 C425 744 489 773 518 844 C503 851 491 858 475 866 C448 817 414 820 374 847 C298 891 238 865 203 792 L246 770 Z " />
<glyph glyph-name="utilde" unicode="&#x169;" horiz-adv-x="587" d="M417 482 L417 202 C417 112 358 56 274 56 C194 56 148 113 149 201 L149 482 L70 482 L70 201 C70 82 122 -8 251 -8 C324 -8 386 8 423 75 C418 -9 478 -14 553 -1 L552 53 C502 48 495 58 495 129 L495 482 L417 482 Z M164 613 C191 661 228 656 269 629 C337 588 399 616 428 684 C413 691 402 698 386 706 C361 658 327 662 288 687 C215 730 155 705 122 634 L164 613 Z " />
<glyph glyph-name="Umacron" unicode="&#x16a;" horiz-adv-x="707" d="M355 -9 C506 -9 621 81 621 238 L621 700 L539 700 L539 239 C539 128 461 66 355 66 C248 66 170 128 170 239 L170 700 L86 700 L86 238 C86 81 203 -9 355 -9 L355 -9 Z M205 784 L502 784 L502 845 L205 845 L205 784 Z " />
<glyph glyph-name="umacron" unicode="&#x16b;" horiz-adv-x="587" d="M417 482 L417 202 C417 112 358 56 274 56 C194 56 148 113 149 201 L149 482 L70 482 L70 201 C70 82 122 -8 251 -8 C324 -8 386 8 423 75 C418 -9 478 -14 553 -1 L552 53 C502 48 495 58 495 129 L495 482 L417 482 Z M144 606 L441 606 L441 667 L144 667 L144 606 Z " />
<glyph glyph-name="Ubreve" unicode="&#x16c;" horiz-adv-x="707" d="M355 -9 C506 -9 621 81 621 238 L621 700 L539 700 L539 239 C539 128 461 66 355 66 C248 66 170 128 170 239 L170 700 L86 700 L86 238 C86 81 203 -9 355 -9 L355 -9 Z M178 888 C198 701 510 699 530 888 L460 888 C441 787 268 786 248 888 L178 888 Z " />
<glyph glyph-name="ubreve" unicode="&#x16d;" horiz-adv-x="587" d="M417 482 L417 202 C417 112 358 56 274 56 C194 56 148 113 149 201 L149 482 L70 482 L70 201 C70 82 122 -8 251 -8 C324 -8 386 8 423 75 C418 -9 478 -14 553 -1 L552 53 C502 48 495 58 495 129 L495 482 L417 482 Z M114 704 C134 529 422 527 442 704 L377 704 C357 610 200 609 179 704 L114 704 Z " />
<glyph glyph-name="Uring" unicode="&#x16e;" horiz-adv-x="707" d="M355 -9 C506 -9 621 81 621 238 L621 700 L539 700 L539 239 C539 128 461 66 355 66 C248 66 170 128 170 239 L170 700 L86 700 L86 238 C86 81 203 -9 355 -9 L355 -9 Z M466 828 C466 967 241 967 241 828 C241 689 466 689 466 828 L466 828 Z M288 828 C288 908 419 908 419 828 C419 748 288 748 288 828 L288 828 Z " />
<glyph glyph-name="uring" unicode="&#x16f;" horiz-adv-x="587" d="M417 482 L417 202 C417 112 358 56 274 56 C194 56 148 113 149 201 L149 482 L70 482 L70 201 C70 82 122 -8 251 -8 C324 -8 386 8 423 75 C418 -9 478 -14 553 -1 L552 53 C502 48 495 58 495 129 L495 482 L417 482 Z M385 637 C385 767 166 767 166 637 C166 509 385 509 385 637 L385 637 Z M212 637 C212 712 339 712 339 637 C339 563 212 563 212 637 L212 637 Z " />
<glyph glyph-name="Uhungarumlaut" unicode="&#x170;" horiz-adv-x="707" d="M355 -9 C506 -9 621 81 621 238 L621 700 L539 700 L539 239 C539 128 461 66 355 66 C248 66 170 128 170 239 L170 700 L86 700 L86 238 C86 81 203 -9 355 -9 L355 -9 Z M222 794 L286 794 L353 903 L353 910 L281 928 L222 801 L222 794 Z M406 794 L470 794 L536 893 L536 901 L465 922 L406 801 L406 794 Z " />
<glyph glyph-name="uhungarumlaut" unicode="&#x171;" horiz-adv-x="587" d="M417 482 L417 202 C417 112 358 56 274 56 C194 56 148 113 149 201 L149 482 L70 482 L70 201 C70 82 122 -8 251 -8 C324 -8 386 8 423 75 C418 -9 478 -14 553 -1 L552 53 C502 48 495 58 495 129 L495 482 L417 482 Z M165 589 L226 589 L289 692 L289 699 L221 716 L165 596 L165 589 Z M339 589 L399 589 L462 683 L462 691 L395 710 L339 596 L339 589 Z " />
<glyph glyph-name="Uogonek" unicode="&#x172;" horiz-adv-x="708" d="M355 -9 C370 -9 386 -7 403 -4 C374 -36 359 -78 378 -119 C409 -205 520 -192 583 -155 L573 -102 C534 -123 466 -144 439 -93 C418 -57 446 -10 478 14 C566 50 621 127 621 238 L621 700 L539 700 L539 239 C539 128 461 66 355 66 C247 66 170 130 170 239 L170 700 L86 700 L86 238 C86 81 203 -9 355 -9 L355 -9 Z " />
<glyph glyph-name="uogonek" unicode="&#x173;" horiz-adv-x="585" d="M417 482 L417 202 C417 112 358 56 274 56 C174 56 149 130 149 229 L149 482 L70 482 L70 229 C70 97 106 -8 251 -8 C326 -8 390 26 419 97 L419 72 C419 37 428 14 446 2 C407 -27 372 -78 394 -128 C423 -211 523 -199 583 -166 L574 -116 C536 -138 477 -155 450 -109 C431 -73 457 -29 487 -7 C507 -10 530 -7 553 -3 L552 44 C482 36 495 90 495 166 L495 482 L417 482 Z " />
<glyph glyph-name="Wcircumflex" unicode="&#x174;" horiz-adv-x="965" d="M462 687 L283 143 L282 143 L202 441 L122 700 L33 700 L33 687 L251 -4 L309 -4 L482 510 L483 510 L658 -4 L716 -4 L931 689 L931 700 L844 700 C816 613 791 530 764 442 L688 143 L686 143 L503 687 L462 687 Z M655 765 L655 772 L517 905 L438 905 L299 773 L299 765 L380 765 L478 856 L576 765 L655 765 Z " />
<glyph glyph-name="wcircumflex" unicode="&#x175;" horiz-adv-x="758" d="M249 -4 L380 320 L507 -4 L543 -4 L733 473 L733 482 L648 482 C625 418 601 356 578 292 L526 136 L525 136 L394 470 L363 470 L234 136 L232 136 L181 292 L110 482 L26 482 L26 473 L214 -4 L249 -4 Z M543 580 L543 586 L412 712 L337 712 L205 587 L205 580 L282 580 L375 666 L468 580 L543 580 Z " />
<glyph glyph-name="Ycircumflex" unicode="&#x176;" horiz-adv-x="628" d="M313 366 L212 537 L110 700 L19 700 L19 689 L272 287 L272 0 L356 0 L356 287 L608 688 L608 700 L519 700 L417 536 L316 366 L313 366 Z M488 765 L488 772 L350 905 L271 905 L132 773 L132 765 L213 765 L311 856 L409 765 L488 765 Z " />
<glyph glyph-name="ycircumflex" unicode="&#x177;" horiz-adv-x="547" d="M518 473 L518 481 L439 481 L351 265 L278 76 L277 76 L198 267 L102 481 L19 481 L19 473 L240 -4 L212 -72 C180 -152 142 -212 50 -169 L39 -227 C197 -296 252 -163 306 -34 L518 473 Z M448 577 L448 584 L310 717 L231 717 L92 585 L92 577 L173 577 L271 668 L369 577 L448 577 Z " />
<glyph glyph-name="Zacute" unicode="&#x179;" horiz-adv-x="584" d="M548 700 L48 700 L48 626 L417 626 L21 11 L21 0 L549 0 L549 76 L152 76 L548 687 L548 700 Z M313 776 L394 879 L394 886 L322 915 L247 783 L247 776 L313 776 Z " />
<glyph glyph-name="zacute" unicode="&#x17a;" horiz-adv-x="461" d="M424 482 L45 482 L45 414 L303 414 L30 10 L30 0 L422 0 L422 69 L155 69 L424 471 L424 482 Z M251 576 L328 673 L328 679 L260 706 L189 582 L189 576 L251 576 Z " />
<glyph glyph-name="Zdotaccent" unicode="&#x17b;" horiz-adv-x="584" d="M548 700 L48 700 L48 626 L417 626 L21 11 L21 0 L549 0 L549 76 L152 76 L548 687 L548 700 Z M298 775 C325 775 348 793 348 820 C348 849 325 867 298 867 C271 867 249 849 249 820 C249 793 271 775 298 775 L298 775 Z " />
<glyph glyph-name="zdotaccent" unicode="&#x17c;" horiz-adv-x="461" d="M424 482 L45 482 L45 414 L303 414 L30 10 L30 0 L422 0 L422 69 L155 69 L424 471 L424 482 Z M237 584 C262 584 285 602 285 627 C285 655 262 672 237 672 C212 672 191 655 191 627 C191 602 212 584 237 584 L237 584 Z " />
<glyph glyph-name="longs" unicode="&#x17f;" horiz-adv-x="312" d="M127 0 L205 0 L205 550 C205 676 294 693 390 653 L401 712 C257 768 128 732 128 552 L128 482 L24 482 L24 424 L127 424 L127 0 Z " />
<glyph glyph-name="Aringacute" unicode="&#x1fa;" horiz-adv-x="706" d="M288 735 C288 804 420 804 420 735 C420 665 288 665 288 735 L288 735 Z M357 557 L500 245 L206 245 L349 557 L357 557 Z M528 173 L610 0 L696 0 L696 11 L397 651 C436 662 467 690 467 735 C467 856 241 856 241 735 C241 690 271 663 310 651 L9 11 L9 0 L96 0 L178 173 L528 173 Z M382 858 L461 931 L461 937 L392 959 L318 864 L318 858 L382 858 Z " />
<glyph glyph-name="aringacute" unicode="&#x1fb;" horiz-adv-x="544" d="M400 87 C400 -1 438 -16 518 -3 L517 48 C458 40 461 71 461 124 L462 325 C462 451 360 493 250 493 C186 493 122 479 75 455 L88 395 C129 419 183 430 238 430 C306 430 386 408 386 327 L386 268 C338 295 279 308 224 308 C124 308 34 251 37 141 C40 44 121 -8 210 -8 C283 -8 365 20 400 87 L400 87 Z M385 163 C369 91 291 59 224 59 C170 59 117 83 114 144 C111 213 173 248 237 248 C286 248 341 234 385 209 L385 163 Z M378 634 C378 758 150 758 150 634 C150 509 378 509 378 634 L378 634 Z M198 634 C198 706 331 706 331 634 C331 562 198 562 198 634 L198 634 Z M297 775 L385 855 L385 860 L307 883 L226 781 L226 775 L297 775 Z " />
<glyph glyph-name="AEacute" unicode="&#x1fc;" horiz-adv-x="825" d="M191 200 L403 200 L403 0 L766 0 L766 73 L476 73 L476 327 L745 327 L745 398 L476 398 L476 624 L761 624 L761 698 L364 698 L8 12 L8 0 L89 0 L191 200 Z M405 623 L406 623 L403 270 L219 270 L405 623 Z M511 768 L592 871 L592 878 L520 907 L445 775 L445 768 L511 768 Z " />
<glyph glyph-name="aeacute" unicode="&#x1fd;" horiz-adv-x="836" d="M204 -9 C292 -9 367 23 415 91 C451 23 517 -10 605 -11 C661 -11 717 4 772 27 L759 85 C714 64 657 49 605 52 C500 53 441 120 441 232 L787 232 C814 373 753 491 596 491 C513 491 448 449 419 376 C406 461 320 491 237 491 C173 491 118 475 74 451 L87 396 C122 416 170 430 226 430 C294 430 374 404 374 322 L374 265 C338 285 298 295 258 300 C238 303 217 303 197 302 C108 294 35 239 38 137 C38 43 119 -9 204 -9 L204 -9 Z M375 202 C376 183 379 170 384 153 C360 89 286 54 219 54 C163 55 115 81 114 141 C111 210 167 242 231 242 C280 242 332 229 375 202 L375 202 Z M591 429 C676 429 729 376 725 292 L444 292 C457 376 507 430 591 429 L591 429 Z M451 579 L528 677 L528 683 L459 711 L388 585 L388 579 L451 579 Z " />
<glyph glyph-name="Oslashacute" unicode="&#x1fe;" horiz-adv-x="808" d="M621 638 L683 741 L683 749 L602 749 L560 675 C511 699 457 710 404 710 C208 710 51 572 51 349 C51 212 108 116 192 57 L131 -44 L131 -52 L212 -52 L256 21 C302 0 351 -11 404 -11 C599 -11 758 127 758 349 C758 485 702 579 621 638 L621 638 Z M295 94 L574 565 C634 522 674 450 674 349 C674 180 557 69 405 69 C366 69 330 77 295 94 L295 94 Z M520 603 L239 128 C176 172 134 245 134 349 C134 519 252 629 404 629 C445 629 484 620 520 603 L520 603 Z M436 792 L517 895 L517 902 L445 931 L370 799 L370 792 L436 792 Z " />
<glyph glyph-name="oslashacute" unicode="&#x1ff;" horiz-adv-x="597" d="M553 243 C553 343 506 413 442 453 L488 544 L424 544 L390 477 C242 527 45 452 45 243 C45 138 95 68 163 29 L120 -56 L184 -56 L215 6 C363 -40 553 38 553 243 L553 243 Z M120 243 C120 392 260 451 361 414 L200 96 C153 123 120 171 120 243 L120 243 Z M477 243 C477 95 345 40 244 69 L404 385 C447 358 477 311 477 243 L477 243 Z M325 585 L402 682 L402 689 L334 716 L263 591 L263 585 L325 585 Z " />
<glyph glyph-name="Scommaaccent" unicode="&#x218;" horiz-adv-x="646" d="M379 -142 C380 -139 379 -133 378 -126 C371 -105 353 -92 330 -92 C302 -92 281 -110 281 -138 C281 -161 296 -176 316 -183 L294 -261 L343 -261 L373 -166 C376 -157 378 -149 379 -142 L379 -142 Z M47 191 C52 47 198 -15 328 -12 C455 -9 599 45 599 195 C599 350 469 375 330 391 C245 402 144 406 144 510 C144 602 240 634 317 637 C397 637 491 609 499 520 L577 520 C572 656 436 715 315 712 C192 712 61 647 61 509 C61 369 189 336 316 323 C411 310 517 308 517 195 C514 93 411 64 327 61 C241 61 133 97 128 191 L47 191 Z " />
<glyph glyph-name="scommaaccent" unicode="&#x219;" horiz-adv-x="509" d="M311 -142 C312 -139 311 -133 310 -126 C303 -105 285 -92 262 -92 C234 -92 213 -110 213 -138 C213 -161 228 -176 248 -183 L226 -261 L275 -261 L305 -166 C308 -157 310 -149 311 -142 L311 -142 Z M40 136 C48 26 149 -12 254 -12 C366 -9 466 39 466 138 C469 252 363 266 262 279 C173 292 128 304 127 351 C124 407 192 430 253 430 C316 430 378 406 378 354 L453 354 C456 447 353 492 253 492 C153 492 50 449 53 349 C56 249 160 229 255 218 C344 205 390 193 390 138 C387 79 321 51 254 51 C189 51 121 75 116 136 L40 136 Z " />
<glyph glyph-name="uni021A" unicode="&#x21a;" horiz-adv-x="549" d="M329 -142 C330 -139 329 -133 328 -126 C321 -105 303 -92 280 -92 C252 -92 231 -110 231 -138 C231 -161 246 -176 266 -183 L244 -261 L293 -261 L323 -166 C326 -157 328 -149 329 -142 L329 -142 Z M234 625 L234 0 L315 0 L315 625 L531 625 L531 700 L18 700 L18 625 L234 625 Z " />
<glyph glyph-name="uni021B" unicode="&#x21b;" horiz-adv-x="421" d="M314 -142 C315 -139 314 -133 313 -126 C306 -105 288 -92 265 -92 C237 -92 216 -110 216 -138 C216 -161 231 -176 251 -183 L229 -261 L278 -261 L308 -166 C311 -157 313 -149 314 -142 L314 -142 Z M204 630 L139 630 L131 480 L23 480 L23 428 L126 423 L126 185 C126 3 240 -44 405 9 L396 72 C280 29 204 64 204 187 L204 423 L381 423 L381 480 L204 480 L204 630 Z " />
<glyph glyph-name="Wgrave" unicode="&#x1e80;" horiz-adv-x="965" d="M462 687 L283 143 L282 143 L202 441 L122 700 L33 700 L33 687 L251 -4 L309 -4 L482 510 L483 510 L658 -4 L716 -4 L931 689 L931 700 L844 700 C816 613 791 530 764 442 L688 143 L686 143 L503 687 L462 687 Z M515 772 L515 779 L440 911 L368 882 L368 875 L449 772 L515 772 Z " />
<glyph glyph-name="wgrave" unicode="&#x1e81;" horiz-adv-x="758" d="M249 -4 L380 320 L507 -4 L543 -4 L733 473 L733 482 L648 482 C625 418 601 356 578 292 L526 136 L525 136 L394 470 L363 470 L234 136 L232 136 L181 292 L110 482 L26 482 L26 473 L214 -4 L249 -4 Z M423 580 L423 587 L351 714 L282 686 L282 679 L360 580 L423 580 Z " />
<glyph glyph-name="Wacute" unicode="&#x1e82;" horiz-adv-x="965" d="M462 687 L283 143 L282 143 L202 441 L122 700 L33 700 L33 687 L251 -4 L309 -4 L482 510 L483 510 L658 -4 L716 -4 L931 689 L931 700 L844 700 C816 613 791 530 764 442 L688 143 L686 143 L503 687 L462 687 Z M517 777 L598 880 L598 887 L526 916 L451 784 L451 777 L517 777 Z " />
<glyph glyph-name="wacute" unicode="&#x1e83;" horiz-adv-x="758" d="M249 -4 L380 320 L507 -4 L543 -4 L733 473 L733 482 L648 482 C625 418 601 356 578 292 L526 136 L525 136 L394 470 L363 470 L234 136 L232 136 L181 292 L110 482 L26 482 L26 473 L214 -4 L249 -4 Z M402 572 L480 672 L480 679 L410 707 L338 579 L338 572 L402 572 Z " />
<glyph glyph-name="Wdieresis" unicode="&#x1e84;" horiz-adv-x="965" d="M462 687 L283 143 L282 143 L202 441 L122 700 L33 700 L33 687 L251 -4 L309 -4 L482 510 L483 510 L658 -4 L716 -4 L931 689 L931 700 L844 700 C816 613 791 530 764 442 L688 143 L686 143 L503 687 L462 687 Z M600 778 C627 778 649 796 649 823 C649 851 627 869 600 869 C572 869 551 851 551 823 C551 796 572 778 600 778 L600 778 Z M365 778 C393 778 415 796 415 823 C415 851 393 869 365 869 C338 869 316 851 316 823 C316 796 338 778 365 778 L365 778 Z " />
<glyph glyph-name="wdieresis" unicode="&#x1e85;" horiz-adv-x="758" d="M249 -4 L380 320 L507 -4 L543 -4 L733 473 L733 482 L648 482 C625 418 601 356 578 292 L526 136 L525 136 L394 470 L363 470 L234 136 L232 136 L181 292 L110 482 L26 482 L26 473 L214 -4 L249 -4 Z M502 592 C529 592 551 610 551 637 C551 665 529 683 502 683 C474 683 453 665 453 637 C453 610 474 592 502 592 L502 592 Z M267 592 C295 592 317 610 317 637 C317 665 295 683 267 683 C240 683 218 665 218 637 C218 610 240 592 267 592 L267 592 Z " />
<glyph glyph-name="Ygrave" unicode="&#x1ef2;" horiz-adv-x="628" d="M313 366 L212 537 L110 700 L19 700 L19 689 L272 287 L272 0 L356 0 L356 287 L608 688 L608 700 L519 700 L417 536 L316 366 L313 366 Z M360 747 L360 754 L285 886 L213 857 L213 850 L294 747 L360 747 Z " />
<glyph glyph-name="ygrave" unicode="&#x1ef3;" horiz-adv-x="547" d="M518 473 L518 481 L439 481 L351 265 L278 76 L277 76 L198 267 L102 481 L19 481 L19 473 L240 -4 L212 -72 C180 -152 142 -212 50 -169 L39 -227 C197 -296 252 -163 306 -34 L518 473 Z M303 581 L303 588 L231 715 L162 687 L162 680 L240 581 L303 581 Z " />
<glyph glyph-name="arrowdown" unicode="&#x2193;" horiz-adv-x="706" d="M347 53 L358 53 L607 332 L558 382 L391 187 L394 657 L311 657 L314 188 L146 382 L97 331 L347 53 Z " />
<glyph glyph-name="arrowright" unicode="&#x2192;" horiz-adv-x="771" d="M680 339 L680 350 L401 599 L351 550 L546 383 L76 386 L76 303 L545 306 L351 138 L402 89 L680 339 Z " />
<glyph glyph-name="arrowup" unicode="&#x2191;" horiz-adv-x="723" d="M364 635 L353 635 L104 356 L153 306 L320 501 L317 31 L400 31 L397 500 L565 306 L614 357 L364 635 Z " />
<glyph glyph-name="arrowleft" unicode="&#x2190;" horiz-adv-x="764" d="M356 89 L407 138 L213 306 L682 303 L682 386 L212 383 L407 550 L357 599 L78 350 L78 339 L356 89 Z " />
<glyph glyph-name="uni2196" unicode="&#x2196;" horiz-adv-x="735" d="M151 185 L221 184 L203 439 L532 105 L591 164 L256 495 L512 475 L512 545 L138 566 L131 558 L151 185 Z " />
<glyph glyph-name="uni2197" unicode="&#x2197;" horiz-adv-x="708" d="M567 558 L560 566 L186 545 L186 475 L442 495 L107 164 L166 105 L495 439 L477 184 L547 185 L567 558 Z " />
<glyph glyph-name="uni2198" unicode="&#x2198;" horiz-adv-x="735" d="M557 516 L487 517 L505 262 L176 596 L117 537 L452 206 L196 226 L196 156 L570 135 L577 143 L557 516 Z " />
<glyph glyph-name="uni2199" unicode="&#x2199;" horiz-adv-x="735" d="M158 143 L165 135 L539 156 L539 226 L283 206 L618 537 L559 596 L230 262 L248 517 L178 516 L158 143 Z " />
<glyph glyph-name="arrowboth" unicode="&#x2194;" horiz-adv-x="989" d="M912 339 L912 350 L643 590 L594 543 L783 382 L202 382 L391 543 L342 590 L73 350 L73 339 L341 98 L391 145 L203 307 L782 307 L594 145 L644 98 L912 339 Z " />
<glyph glyph-name="arrowupdn" unicode="&#x2195;" horiz-adv-x="694" d="M346 -22 L357 -22 L596 236 L549 283 L388 102 L388 627 L549 446 L596 493 L357 751 L346 751 L106 494 L153 446 L314 626 L314 103 L153 283 L106 235 L346 -22 Z " />
<glyph glyph-name="ellipsis" unicode="&#x2026;" horiz-adv-x="665" d="M119 -9 C148 -9 171 11 171 38 C171 69 148 86 119 86 C91 86 68 69 68 38 C68 11 91 -9 119 -9 L119 -9 Z M330 -9 C359 -9 382 11 382 38 C382 69 359 86 330 86 C302 86 279 69 279 38 C279 11 302 -9 330 -9 L330 -9 Z M546 -9 C574 -9 597 11 597 38 C597 69 574 86 546 86 C517 86 495 69 495 38 C495 11 517 -9 546 -9 L546 -9 Z " />
<glyph glyph-name="twosuperior" unicode="&#xb2;" horiz-adv-x="403" d="M334 414 L166 414 L286 555 C358 640 330 769 198 769 C115 769 75 725 72 652 L125 652 C128 695 152 716 197 716 C277 716 290 639 237 580 L65 374 L65 360 L334 360 L334 414 Z " />
<glyph glyph-name="threesuperior" unicode="&#xb3;" horiz-adv-x="384" d="M43 473 C50 397 108 353 185 353 C279 353 334 413 334 488 C334 549 295 604 223 607 L331 753 L331 763 L61 763 L61 713 L235 713 L138 578 L138 563 C207 579 274 557 274 488 C274 437 237 407 184 407 C137 407 105 430 98 473 L43 473 L43 473 Z " />
<glyph glyph-name="onesuperior" unicode="&#xb9;" horiz-adv-x="330" d="M54 360 L276 360 L276 410 L195 410 L195 763 L63 763 L63 713 L134 713 L134 410 L54 410 L54 360 Z " />
<glyph glyph-name="onequarter" unicode="&#xbc;" horiz-adv-x="889" d="M752 136 L610 136 L754 333 L755 333 C754 298 752 262 752 227 L752 136 Z M806 86 L851 86 L851 138 L806 138 L806 404 L742 404 L534 114 L534 86 L748 86 L748 1 L806 1 L806 86 Z M244 1 L309 1 L647 700 L582 700 L244 1 Z M49 304 L272 304 L272 351 L191 351 L191 708 L59 708 L59 661 L130 661 L130 351 L49 351 L49 304 Z " />
<glyph glyph-name="onehalf" unicode="&#xbd;" horiz-adv-x="904" d="M244 1 L309 1 L648 700 L582 700 L244 1 Z M50 304 L273 304 L273 350 L192 350 L192 708 L60 708 L60 658 L131 658 L131 350 L50 350 L50 304 Z M860 54 L692 54 L812 195 C884 280 856 409 724 409 C641 409 601 365 598 292 L651 292 C654 335 678 356 723 356 C803 356 816 279 763 220 L591 14 L591 0 L860 0 L860 54 Z " />
<glyph glyph-name="threequarters" unicode="&#xbe;" horiz-adv-x="911" d="M278 1 L342 1 L680 700 L616 700 L278 1 Z M774 136 L632 136 L776 333 L777 333 C776 298 774 262 774 227 L774 136 Z M828 86 L873 86 L873 138 L828 138 L828 404 L764 404 L556 114 L556 86 L770 86 L770 1 L828 1 L828 86 Z M43 415 C50 339 108 295 185 295 C279 295 334 355 334 430 C334 491 295 546 223 549 L331 695 L331 705 L61 705 L61 655 L235 655 L138 520 L138 505 C207 521 274 499 274 430 C274 379 237 349 184 349 C137 349 105 372 98 415 L43 415 Z " />
<glyph glyph-name="ordmasculine" unicode="&#xba;" horiz-adv-x="537" d="M466 532 C466 788 66 788 66 532 C66 277 466 277 466 532 L466 532 Z M133 533 C133 711 400 711 400 533 C400 354 133 354 133 533 L133 533 Z M78 197 L461 197 L461 261 L78 261 L78 197 Z " />
<glyph glyph-name="questiondown" unicode="&#xbf;" horiz-adv-x="485" d="M214 337 C218 131 36 128 36 -28 C36 -152 127 -219 242 -219 C353 -219 445 -164 453 -36 L377 -36 C366 -110 306 -148 241 -145 C173 -142 120 -99 120 -32 C120 119 293 95 289 337 L214 337 Z M249 498 C221 498 200 479 200 451 C200 423 221 405 249 405 C277 405 299 423 299 451 C299 479 277 498 249 498 L249 498 Z " />
<glyph glyph-name="adieresis" unicode="&#xe4;" horiz-adv-x="544" d="M360 599 C387 599 409 617 409 644 C409 672 387 690 360 690 C332 690 311 672 311 644 C311 617 332 599 360 599 L360 599 Z M157 599 C185 599 207 617 207 644 C207 672 185 690 157 690 C130 690 108 672 108 644 C108 617 130 599 157 599 L157 599 Z M400 87 C400 -1 438 -16 518 -3 L517 48 C458 40 461 71 461 124 L462 325 C462 451 360 493 250 493 C186 493 122 479 75 455 L88 395 C129 419 183 430 238 430 C306 430 386 408 386 327 L386 268 C338 295 279 308 224 308 C124 308 34 251 37 141 C40 44 121 -8 210 -8 C283 -8 365 20 400 87 L400 87 Z M385 163 C369 91 291 59 224 59 C170 59 117 83 114 144 C111 213 173 248 237 248 C286 248 341 234 385 209 L385 163 Z " />
<glyph glyph-name="ccedilla" unicode="&#xe7;" horiz-adv-x="569" d="M261 -76 C298 -71 360 -95 344 -144 C328 -195 237 -178 202 -146 L198 -194 C260 -240 379 -239 406 -159 C422 -105 390 -55 325 -52 L337 -5 C425 6 505 64 531 162 L453 162 C391 1 124 36 124 243 C124 446 386 481 449 335 L526 335 C460 577 45 540 45 243 C45 87 162 1 279 -7 L261 -76 Z " />
<glyph glyph-name="idieresis" unicode="&#xef;" horiz-adv-x="235" d="M203 618 C230 618 252 636 252 663 C252 691 230 709 203 709 C175 709 154 691 154 663 C154 636 175 618 203 618 L203 618 Z M28 618 C56 618 78 636 78 663 C78 691 56 709 28 709 C1 709 -21 691 -21 663 C-21 636 1 618 28 618 L28 618 Z M157 481 L78 481 L78 0 L157 0 L157 481 Z " />
<glyph glyph-name="B" unicode="B" horiz-adv-x="669" d="M586 510 C586 643 492 700 366 700 L93 700 L93 0 L396 0 C527 0 618 69 618 197 C618 285 572 342 492 365 C552 388 586 442 586 510 L586 510 Z M361 630 C445 630 505 599 505 509 C505 422 442 392 361 392 L176 392 L176 630 L361 630 Z M371 322 C463 322 537 290 534 197 C534 112 472 72 390 72 L176 72 L176 322 L371 322 Z " />
<glyph glyph-name="at" unicode="&#x40;" horiz-adv-x="909" d="M600 88 C593 32 612 -10 669 -10 C780 -10 854 122 865 248 C889 491 743 648 501 648 C264 648 77 482 56 245 C27 -63 258 -218 533 -123 L538 -74 C288 -170 81 -32 108 245 C127 454 289 597 496 597 C712 597 834 461 815 248 C807 171 770 46 698 49 C665 49 665 81 669 124 L696 421 C647 466 572 498 497 498 C358 498 232 409 219 245 C206 111 273 -7 417 -7 C496 -6 567 32 602 104 L600 88 Z M602 235 C591 145 533 65 435 65 C331 65 289 149 297 245 C308 364 388 431 483 431 C536 431 579 422 616 391 L602 235 Z " />
<glyph glyph-name="A" unicode="A" horiz-adv-x="706" d="M528 173 L610 0 L696 0 L696 11 L373 703 L335 703 L9 11 L9 0 L96 0 L178 173 L528 173 Z M353 572 L500 245 L206 245 L353 572 Z " />
<glyph glyph-name="afii10051" unicode="&#x402;" horiz-adv-x="742" d="M695 115 L695 269 C695 393 619 480 487 480 C408 480 331 453 299 390 L299 627 L534 627 L534 700 L18 700 L18 627 L218 627 L218 0 L299 0 L299 266 C302 350 377 412 465 412 C553 411 617 360 617 269 L617 116 C617 17 602 -32 496 -14 L493 -74 C639 -100 695 -38 695 115 L695 115 Z " />
<glyph glyph-name="afii10052" unicode="&#x403;" horiz-adv-x="516" d="M501 626 C501 653 501 672 501 700 C367 700 227 700 93 700 C93 466 93 234 93 0 C121 0 149 0 176 0 C176 209 176 417 176 626 L501 626 Z M321 769 L421 889 L421 896 L350 923 L256 776 L256 769 L321 769 Z " />
<glyph glyph-name="afii10100" unicode="&#x453;" horiz-adv-x="441" d="M154 0 L154 413 L418 413 L418 482 L76 482 L76 0 L154 0 Z M266 575 L358 693 L358 700 L290 725 L204 582 L204 575 L266 575 Z " />
<glyph glyph-name="afii10058" unicode="&#x409;" horiz-adv-x="989" d="M564 386 L703 386 C805 386 878 338 878 230 C878 134 809 74 703 74 C661 74 609 74 564 74 L564 386 Z M564 460 L564 700 L206 700 L154 230 C141 122 138 45 20 64 L19 2 C192 -25 218 56 237 225 C251 358 264 492 278 625 L485 625 L485 0 L715 0 C854 0 958 95 958 230 C958 358 866 460 716 460 L564 460 Z " />
<glyph glyph-name="afii10059" unicode="&#x40a;" horiz-adv-x="992" d="M565 700 L483 700 L483 431 L176 431 L176 700 L93 700 L93 0 L176 0 L176 354 L483 354 L483 0 L716 0 C864 0 961 88 961 227 C961 355 865 436 717 436 L565 436 L565 700 Z M716 361 C808 361 877 314 879 227 C883 134 815 75 716 74 C662 74 618 74 565 74 L565 361 L716 361 Z " />
<glyph glyph-name="afii10061" unicode="&#x40c;" horiz-adv-x="666" d="M354 769 L454 889 L454 896 L383 923 L288 776 L288 769 L354 769 Z M176 700 L93 700 L93 0 L176 0 L176 310 C215 310 293 312 330 323 L552 0 L647 0 L647 12 L403 357 C452 400 476 473 497 545 C518 618 549 652 628 643 L628 699 C497 723 450 662 423 569 C405 503 379 426 335 400 C304 381 243 380 176 380 L176 700 Z " />
<glyph glyph-name="afii10060" unicode="&#x40b;" horiz-adv-x="746" d="M695 0 L695 269 C695 393 619 480 487 481 C409 481 335 455 299 389 L299 628 L534 628 L534 700 L18 700 L18 628 L218 628 L218 0 L299 0 L299 262 C302 346 377 413 465 413 C553 412 617 360 617 269 L617 0 L695 0 Z " />
<glyph glyph-name="afii10145" unicode="&#x40f;" horiz-adv-x="723" d="M325 -142 L405 -142 L405 0 L630 0 L630 700 L547 700 L547 77 L177 77 L177 700 L93 700 L93 0 L325 0 L325 -142 Z " />
<glyph glyph-name="afii10099" unicode="&#x452;" horiz-adv-x="581" d="M317 -11 C317 -32 317 -53 317 -73 C461 -97 514 -27 514 121 L514 284 C514 400 457 497 320 497 C243 497 189 470 155 418 L155 603 L311 603 L311 662 L155 662 L155 731 L76 731 L76 662 L-4 662 L-4 603 L76 603 L76 0 L155 0 L155 274 C155 364 214 429 300 429 C384 429 434 375 435 284 L435 122 C435 26 422 -29 317 -11 L317 -11 Z " />
<glyph glyph-name="afii10106" unicode="&#x459;" horiz-adv-x="772" d="M383 0 L541 0 C646 0 740 41 740 163 C740 285 647 324 541 324 L459 324 L459 482 L164 482 L126 163 C117 87 108 45 18 59 L17 0 C156 -20 189 26 203 159 L232 412 L383 412 L383 0 Z M540 263 C608 263 664 236 664 163 C664 89 608 61 540 61 L459 61 L459 263 L540 263 Z " />
<glyph glyph-name="afii10107" unicode="&#x45a;" horiz-adv-x="760" d="M529 0 C634 0 728 32 728 154 C728 276 635 307 529 307 L447 307 L447 482 L371 482 L371 304 L152 304 L152 482 L76 482 L76 0 L152 0 L152 236 L371 236 L371 0 L529 0 Z M528 246 C597 246 652 227 652 154 C652 80 597 61 528 61 L447 61 L447 246 L528 246 Z " />
<glyph glyph-name="afii10109" unicode="&#x45c;" horiz-adv-x="534" d="M155 278 L155 483 L76 483 L76 1 L155 1 L155 214 L218 214 C238 214 259 215 277 219 L426 1 L507 1 L507 10 L346 243 C451 283 485 375 483 483 L409 483 C409 352 349 278 219 278 L155 278 Z M303 575 L395 693 L395 700 L327 725 L241 582 L241 575 L303 575 Z " />
<glyph glyph-name="afii10108" unicode="&#x45b;" horiz-adv-x="584" d="M435 0 L514 0 L514 284 C514 431 436 495 304 495 C235 491 177 465 155 411 L155 606 L311 606 L311 662 L155 662 L155 731 L76 731 L76 662 L-3 662 L-3 606 L76 606 L76 0 L155 0 L155 268 C155 359 214 429 300 429 C384 429 434 374 435 284 L435 0 Z " />
<glyph glyph-name="afii10193" unicode="&#x45f;" horiz-adv-x="576" d="M252 0 L252 -109 L324 -109 L324 0 L500 0 L500 482 L421 482 L421 70 L153 70 L153 482 L76 482 L76 0 L252 0 Z " />
<glyph glyph-name="afii10062" unicode="&#x40e;" horiz-adv-x="611" d="M159 887 C168 805 221 751 307 751 C399 751 446 807 455 887 C439 889 420 892 403 893 C394 843 354 817 306 817 C254 818 222 848 214 893 L159 887 Z M222 139 C191 73 146 39 71 76 L59 10 C210 -42 254 16 305 124 L592 692 L592 700 L502 700 L312 311 L309 311 L98 700 L5 700 L5 690 L266 226 L222 139 Z " />
<glyph glyph-name="afii10110" unicode="&#x45e;" horiz-adv-x="547" d="M518 473 C518 476 518 479 518 481 L439 481 L280 87 C280 87 279 87 279 87 L103 481 L19 481 C19 479 19 476 19 473 L240 -4 L212 -72 C180 -154 142 -210 50 -169 L39 -233 C195 -303 252 -164 306 -34 L518 473 Z M129 684 C138 604 198 559 273 559 C353 559 409 606 417 684 C402 686 386 689 370 690 C361 641 320 616 272 616 C222 618 185 644 177 690 L129 684 Z " />
<glyph glyph-name="afii10057" unicode="&#x408;" horiz-adv-x="639" d="M553 700 L298 700 L298 626 L469 626 L469 236 C469 127 395 66 290 66 C185 66 113 125 113 236 L113 308 L34 308 L34 235 C34 83 142 -10 290 -10 C438 -10 553 80 553 235 L553 700 Z " />
<glyph glyph-name="afii10050" unicode="&#x490;" horiz-adv-x="516" d="M501 626 L501 807 L434 807 L434 700 L93 700 L93 0 L177 0 L177 626 L501 626 Z " />
<glyph glyph-name="afii10023" unicode="&#x401;" horiz-adv-x="569" d="M500 700 L93 700 L93 0 L511 0 L511 77 L177 77 L177 325 L489 325 L489 398 L177 398 L177 627 L500 627 L500 700 Z M416 766 C443 766 465 784 465 811 C465 839 443 857 416 857 C388 857 367 839 367 811 C367 784 388 766 416 766 L416 766 Z M181 766 C209 766 231 784 231 811 C231 839 209 857 181 857 C154 857 132 839 132 811 C132 784 154 766 181 766 L181 766 Z " />
<glyph glyph-name="afii10053" unicode="&#x404;" horiz-adv-x="760" d="M402 633 C514 633 592 583 633 489 L714 489 C671 636 537 708 402 710 C205 711 50 569 50 350 C50 130 208 -9 404 -9 C544 -9 681 66 721 222 L639 222 C603 122 510 67 404 67 C255 67 144 166 133 311 L443 311 L443 386 L132 386 C141 532 252 634 402 633 L402 633 Z " />
<glyph glyph-name="afii10056" unicode="&#x407;" horiz-adv-x="400" d="M242 67 L242 634 L355 634 L355 700 L45 700 L45 634 L158 634 L158 67 L37 67 L37 0 L363 0 L363 67 L242 67 Z M322 758 C349 758 371 776 371 803 C371 831 349 849 322 849 C294 849 273 831 273 803 C273 776 294 758 322 758 L322 758 Z M87 758 C115 758 137 776 137 803 C137 831 115 849 87 849 C60 849 38 831 38 803 C38 776 60 758 87 758 L87 758 Z " />
<glyph glyph-name="afii10055" unicode="&#x406;" horiz-adv-x="400" d="M242 67 L242 634 L355 634 L355 700 L45 700 L45 634 L158 634 L158 67 L37 67 L37 0 L363 0 L363 67 L242 67 Z " />
<glyph glyph-name="afii10103" unicode="&#x456;" horiz-adv-x="234" d="M68 641 C68 574 167 574 167 641 C167 707 68 707 68 641 L68 641 Z M156 478 L78 478 L78 0 L156 0 L156 478 Z " />
<glyph glyph-name="afii10098" unicode="&#x491;" horiz-adv-x="441" d="M154 0 L154 413 L418 413 L418 581 L355 581 L355 482 L76 482 L76 0 L154 0 Z " />
<glyph glyph-name="afii10071" unicode="&#x451;" horiz-adv-x="554" d="M389 608 C414 608 434 626 434 650 C434 675 414 692 389 692 C362 692 343 675 343 650 C343 626 362 608 389 608 L389 608 Z M183 608 C210 608 230 626 230 650 C230 675 210 692 183 692 C158 692 138 675 138 650 C138 626 158 608 183 608 L183 608 Z M292 493 C160 493 50 406 45 254 C40 90 153 -11 313 -11 C372 -11 433 3 490 30 L478 89 C422 66 370 54 315 54 C206 54 118 122 123 233 L506 233 C533 392 456 492 292 493 L292 493 Z M292 431 C378 431 445 384 440 293 L126 293 C139 380 204 431 292 431 L292 431 Z " />
<glyph glyph-name="afii61352" unicode="&#x2116;" horiz-adv-x="1340" d="M628 -1 L655 -1 L655 701 L571 701 L571 373 L580 172 L124 702 L95 702 L95 0 L178 0 L178 337 L171 529 L628 -1 Z M1301 242 C1301 577 793 577 793 242 C793 -93 1301 -91 1301 242 L1301 242 Z M872 242 C872 487 1223 487 1223 242 C1223 -4 872 -4 872 242 L872 242 Z " />
<glyph glyph-name="afii10101" unicode="&#x454;" horiz-adv-x="569" d="M122 271 C131 373 217 423 301 423 C363 422 425 393 450 331 L525 333 C497 441 399 493 301 493 C174 493 45 414 45 241 C45 69 172 -10 298 -10 C402 -11 505 47 532 164 L456 166 C432 94 363 59 297 59 C212 60 131 108 122 208 L351 208 L351 271 L122 271 L122 271 Z " />
<glyph glyph-name="afii10105" unicode="&#x458;" horiz-adv-x="234" d="M78 480 L78 -56 C78 -152 63 -208 -44 -189 L-46 -250 C99 -277 155 -209 155 -57 L156 480 L78 480 Z M67 641 C67 574 166 574 166 641 C166 707 67 707 67 641 L67 641 Z " />
<glyph glyph-name="afii10054" unicode="&#x405;" horiz-adv-x="646" d="M47 191 C52 47 198 -15 328 -12 C455 -9 599 45 599 195 C599 350 469 375 330 391 C245 402 144 406 144 510 C144 602 240 634 317 637 C397 637 491 609 499 520 L577 520 C572 656 436 715 315 712 C192 712 61 647 61 509 C61 369 189 336 316 323 C411 310 517 308 517 195 C514 93 411 64 327 61 C241 61 133 97 128 191 L47 191 Z " />
<glyph glyph-name="afii10102" unicode="&#x455;" horiz-adv-x="509" d="M40 136 C48 26 149 -12 254 -12 C366 -9 466 39 466 138 C469 252 363 266 262 279 C173 292 128 304 127 351 C124 407 192 430 253 430 C316 430 378 406 378 354 L453 354 C456 447 353 492 253 492 C153 492 50 449 53 349 C56 249 160 229 255 218 C344 205 390 193 390 138 C387 79 321 51 254 51 C189 51 121 75 116 136 L40 136 Z " />
<glyph glyph-name="afii10104" unicode="&#x457;" horiz-adv-x="235" d="M203 618 C230 618 252 636 252 663 C252 691 230 709 203 709 C175 709 154 691 154 663 C154 636 175 618 203 618 L203 618 Z M28 618 C56 618 78 636 78 663 C78 691 56 709 28 709 C1 709 -21 691 -21 663 C-21 636 1 618 28 618 L28 618 Z M157 481 L78 481 L78 0 L157 0 L157 481 Z " />
<glyph glyph-name="afii10017" unicode="&#x410;" horiz-adv-x="706" d="M528 173 L610 0 L696 0 L696 11 L373 703 L335 703 L9 11 L9 0 L96 0 L178 173 L528 173 Z M353 572 L500 245 L206 245 L353 572 Z " />
<glyph glyph-name="afii10018" unicode="&#x411;" horiz-adv-x="656" d="M372 351 C480 351 534 290 534 213 C534 129 480 74 372 74 C309 74 240 74 175 74 L175 351 L372 351 Z M175 626 L557 626 L557 700 L93 700 C93 466 93 234 93 0 C185 0 281 0 373 0 C535 1 617 93 617 214 C617 337 536 423 373 423 L175 423 L175 626 Z " />
<glyph glyph-name="afii10019" unicode="&#x412;" horiz-adv-x="669" d="M586 513 C586 646 492 703 366 703 L93 703 L93 3 L396 3 C527 3 618 73 618 200 C618 283 572 344 492 367 C555 392 586 448 586 513 L586 513 Z M361 629 C443 629 504 594 503 510 C503 426 438 396 349 396 L177 396 L177 629 L361 629 Z M534 200 C533 115 468 77 379 77 L177 77 L177 324 L349 324 C443 324 538 299 534 200 L534 200 Z " />
<glyph glyph-name="afii10020" unicode="&#x413;" horiz-adv-x="516" d="M501 626 C501 653 501 672 501 700 C367 700 227 700 93 700 C93 466 93 234 93 0 C121 0 149 0 176 0 C176 209 176 417 176 626 L501 626 Z " />
<glyph glyph-name="afii10021" unicode="&#x414;" horiz-adv-x="725" d="M272 627 L529 627 L529 71 L176 71 C210 93 219 144 223 182 L272 627 Z M24 72 L24 -114 L97 -114 L97 0 C273 0 439 0 614 0 L614 -114 L686 -114 L686 72 L610 72 L610 700 C481 700 326 700 199 700 L140 186 C131 115 118 73 46 72 L24 72 Z " />
<glyph glyph-name="afii10022" unicode="&#x415;" horiz-adv-x="569" d="M500 700 L93 700 L93 0 L511 0 L511 77 L177 77 L177 325 L489 325 L489 398 L177 398 L177 627 L500 627 L500 700 Z " />
<glyph glyph-name="afii10024" unicode="&#x416;" horiz-adv-x="974" d="M956 0 L956 12 C875 127 792 243 711 357 C760 399 782 474 803 546 C825 618 860 648 937 638 L937 699 C823 718 757 680 729 569 C714 517 693 432 643 403 C607 382 572 379 529 379 L529 700 C501 700 473 700 445 700 L445 379 C401 379 368 382 332 403 C281 432 260 517 246 569 C217 680 151 718 37 699 L37 638 C114 648 149 618 171 546 C191 474 216 399 265 357 C184 243 99 127 18 12 L18 0 L113 0 C187 108 261 216 335 323 C370 308 406 304 445 304 L445 0 C473 0 501 0 529 0 L529 304 C568 304 605 308 640 323 C714 216 787 108 861 0 L956 0 Z " />
<glyph glyph-name="afii10025" unicode="&#x417;" horiz-adv-x="588" d="M137 539 C137 618 211 648 283 648 C357 648 425 607 425 526 C425 452 354 411 282 411 L235 411 L235 342 L283 342 C374 342 456 289 456 199 C456 102 378 55 283 55 C191 55 113 108 113 206 L39 206 C39 60 144 -17 283 -17 C433 -17 539 58 539 194 C539 290 486 352 401 380 C460 405 502 459 502 527 C502 640 410 717 283 717 C169 717 59 665 62 539 L137 539 Z " />
<glyph glyph-name="afii10026" unicode="&#x418;" horiz-adv-x="746" d="M577 529 L570 337 L570 0 L653 0 L653 702 L624 702 L168 172 L177 373 L177 701 L93 701 L93 -1 L120 -1 L577 529 Z " />
<glyph glyph-name="afii10027" unicode="&#x419;" horiz-adv-x="746" d="M240 884 C249 796 318 746 395 746 C478 746 539 798 548 884 C532 887 510 889 493 891 C484 840 443 814 395 814 C343 816 306 843 298 891 L240 884 Z M120 -1 L93 -1 L93 701 L177 701 L177 373 L168 172 L624 702 L653 702 L653 0 L570 0 L570 337 L577 529 L120 -1 Z " />
<glyph glyph-name="afii10028" unicode="&#x41a;" horiz-adv-x="666" d="M176 700 L93 700 L93 0 L176 0 L176 310 C215 310 293 312 330 323 L552 0 L647 0 L647 12 L403 357 C452 400 476 473 497 545 C518 618 549 652 628 643 L628 699 C497 723 450 662 423 569 C405 503 379 426 335 400 C304 381 243 380 176 380 L176 700 Z " />
<glyph glyph-name="afii10029" unicode="&#x41b;" horiz-adv-x="723" d="M278 625 L547 625 L547 0 L630 0 L630 700 C501 700 336 700 205 700 L147 175 C137 92 113 49 19 64 L18 2 C167 -21 216 30 230 170 L278 625 Z " />
<glyph glyph-name="afii10030" unicode="&#x41c;" horiz-adv-x="827" d="M414 310 L126 701 L93 701 L93 0 L177 0 L177 505 L407 189 L420 189 L650 505 L650 0 L734 0 L734 701 L702 701 L414 310 Z " />
<glyph glyph-name="afii10031" unicode="&#x41d;" horiz-adv-x="723" d="M630 0 L630 700 L546 700 L546 405 L176 405 L176 700 L93 700 L93 0 L176 0 L176 328 L546 328 L546 0 L630 0 Z " />
<glyph glyph-name="afii10032" unicode="&#x41e;" horiz-adv-x="810" d="M760 350 C760 572 601 712 405 712 C209 712 50 574 50 350 C50 127 207 -11 404 -11 C615 -11 760 138 760 350 L760 350 Z M134 350 C134 522 253 636 405 636 C560 636 676 520 676 350 C676 180 558 66 404 66 C251 66 134 180 134 350 L134 350 Z " />
<glyph glyph-name="afii10033" unicode="&#x41f;" horiz-adv-x="723" d="M93 700 L93 0 C121 0 149 0 177 0 L177 623 L546 623 L546 0 C574 0 602 0 630 0 L630 700 L93 700 Z " />
<glyph glyph-name="afii10034" unicode="&#x420;" horiz-adv-x="650" d="M176 1 L176 223 L373 223 C521 223 618 328 618 461 C618 595 523 701 373 701 C281 702 185 701 93 701 L93 1 L176 1 Z M175 298 L175 627 C242 627 309 628 373 627 C469 627 537 558 537 463 C537 366 466 298 373 298 L175 298 Z " />
<glyph glyph-name="afii10035" unicode="&#x421;" horiz-adv-x="762" d="M50 350 C50 130 209 -8 404 -8 C544 -8 679 67 719 224 L638 224 C601 123 510 69 403 69 C242 69 135 192 135 350 C135 513 243 634 404 631 C505 631 591 584 634 489 L715 489 C673 635 539 708 404 708 C207 711 50 569 50 350 L50 350 Z " />
<glyph glyph-name="afii10036" unicode="&#x422;" horiz-adv-x="549" d="M234 625 L234 0 L315 0 L315 625 L531 625 L531 700 L18 700 L18 625 L234 625 Z " />
<glyph glyph-name="afii10037" unicode="&#x423;" horiz-adv-x="614" d="M224 139 C193 73 148 39 73 76 L61 8 C196 -48 256 16 307 124 L594 692 L594 700 L504 700 L314 311 L311 311 L100 700 L7 700 L7 690 L268 226 L224 139 Z " />
<glyph glyph-name="afii10038" unicode="&#x424;" horiz-adv-x="885" d="M741 351 C741 193 613 152 481 148 L481 553 C612 551 741 508 741 351 L741 351 Z M144 351 C144 508 273 551 405 553 L405 148 C275 152 144 193 144 351 L144 351 Z M404 -1 L482 -1 L482 78 C660 81 825 149 825 351 C825 553 663 621 482 625 L482 701 L403 701 L403 625 C225 621 60 549 60 351 C60 153 225 81 404 78 L404 -1 Z " />
<glyph glyph-name="afii10039" unicode="&#x425;" horiz-adv-x="632" d="M316 423 L219 570 L128 700 L38 700 L38 688 L266 369 L12 12 L12 0 L104 0 L221 166 L315 310 L318 310 L414 164 L530 0 L621 0 L621 11 L367 369 L595 689 L595 700 L506 700 L416 572 L318 423 L316 423 Z " />
<glyph glyph-name="afii10040" unicode="&#x426;" horiz-adv-x="728" d="M621 0 L621 -112 L689 -112 L689 72 L614 72 L614 700 L530 700 L530 77 L177 77 L177 700 L93 700 L93 0 L621 0 Z " />
<glyph glyph-name="afii10041" unicode="&#x427;" horiz-adv-x="634" d="M541 0 L541 699 L458 699 L458 340 C241 307 127 363 127 596 L127 699 L43 699 L43 596 C43 306 196 224 458 262 L458 0 L541 0 Z " />
<glyph glyph-name="afii10042" unicode="&#x428;" horiz-adv-x="1028" d="M93 0 C373 0 654 0 935 0 L935 700 L851 700 L851 77 L554 77 L554 700 L470 700 L470 77 L176 77 L176 700 L93 700 L93 0 Z " />
<glyph glyph-name="afii10043" unicode="&#x429;" horiz-adv-x="1039" d="M93 0 C372 0 652 0 931 0 L931 -111 L1000 -111 L1000 72 L924 72 L924 700 L841 700 L841 77 L548 77 L548 700 L464 700 L464 77 L178 77 L178 700 L93 700 L93 0 Z " />
<glyph glyph-name="afii10044" unicode="&#x42a;" horiz-adv-x="705" d="M429 386 C523 386 592 325 593 233 C593 140 524 74 429 74 C365 73 300 74 236 74 L236 386 L429 386 Z M22 629 L154 629 L154 0 L430 0 C577 0 673 102 673 233 C673 363 577 460 430 460 L236 460 L236 700 L22 700 L22 629 Z " />
<glyph glyph-name="afii10045" unicode="&#x42b;" horiz-adv-x="904" d="M174 700 L93 700 L93 0 L367 0 C508 0 604 92 610 217 C618 352 523 460 367 460 L174 460 L174 648 C174 665 174 683 174 700 L174 700 Z M367 386 C465 386 533 320 530 226 C526 129 455 74 354 74 C294 74 234 74 174 74 L174 386 L320 386 C335 386 352 386 367 386 L367 386 Z M811 700 L728 700 L728 0 L811 0 L811 700 Z " />
<glyph glyph-name="afii10046" unicode="&#x42c;" horiz-adv-x="643" d="M174 700 L93 700 L93 0 L367 0 C515 0 612 102 611 233 C611 363 515 460 367 460 L174 460 L174 700 Z M367 386 C462 386 530 325 530 233 C531 140 461 74 367 74 C303 73 238 74 174 74 L174 386 L367 386 Z " />
<glyph glyph-name="afii10047" unicode="&#x42d;" horiz-adv-x="760" d="M359 633 C508 634 615 531 623 385 L317 385 L317 314 L622 314 C611 169 505 67 356 67 C250 67 157 122 121 222 L39 222 C79 66 216 -9 356 -9 C552 -9 710 130 710 350 C710 569 555 711 359 710 C223 708 89 636 46 489 L128 489 C169 583 257 633 359 633 L359 633 Z " />
<glyph glyph-name="afii10048" unicode="&#x42e;" horiz-adv-x="1060" d="M1010 350 C1010 573 852 710 657 711 C473 712 325 589 306 394 L177 394 L177 700 L93 700 L93 0 L177 0 L177 317 L305 317 C319 116 468 -11 655 -11 C851 -12 1010 126 1010 350 L1010 350 Z M386 350 C386 521 502 631 655 631 C808 631 926 521 926 350 C926 178 809 68 656 68 C503 68 386 178 386 350 L386 350 Z " />
<glyph glyph-name="afii10049" unicode="&#x42f;" horiz-adv-x="672" d="M30 13 L30 1 L121 1 L312 255 L495 255 L495 1 L579 1 L579 701 L300 701 C156 701 61 604 61 476 C61 369 130 290 229 266 L30 13 Z M300 327 C210 327 142 386 142 477 C142 567 210 627 300 627 L496 627 L496 327 L300 327 Z " />
<glyph glyph-name="afii10065" unicode="&#x430;" horiz-adv-x="544" d="M400 87 C400 -1 438 -16 518 -3 L517 48 C458 40 461 71 461 124 L461 325 C464 451 359 493 250 493 C186 493 122 479 75 455 L88 395 C129 419 183 430 238 430 C304 430 390 408 390 327 L390 268 C342 295 279 308 224 308 C124 308 34 251 37 141 C40 44 121 -8 210 -8 C283 -8 365 20 400 87 L400 87 Z M389 163 C373 91 287 59 224 59 C170 59 117 83 114 144 C111 213 173 248 237 248 C286 248 345 234 389 209 L389 163 Z " />
<glyph glyph-name="afii10066" unicode="&#x431;" horiz-adv-x="601" d="M319 478 C231 477 158 428 128 364 C142 469 198 514 287 557 C358 592 501 626 469 735 L392 735 C410 666 324 653 255 620 C80 537 39 406 61 210 C75 91 153 -9 308 -9 C471 -9 554 112 555 235 C557 369 466 481 319 478 L319 478 Z M134 236 C135 324 200 409 309 409 C417 409 478 329 479 237 C480 140 416 60 308 60 C207 60 134 130 134 236 L134 236 Z " />
<glyph glyph-name="afii10067" unicode="&#x432;" horiz-adv-x="527" d="M455 357 C455 473 339 483 252 483 L76 483 C76 320 76 159 76 -1 L274 -1 C369 -1 483 12 483 134 C483 195 445 242 383 257 C433 271 455 314 455 357 L455 357 Z M152 64 L152 222 L259 222 C320 222 406 216 406 140 C406 62 326 64 267 64 L152 64 Z M152 282 L152 422 L256 422 C309 422 378 417 378 351 C378 285 309 282 256 282 L152 282 Z " />
<glyph glyph-name="afii10068" unicode="&#x433;" horiz-adv-x="426" d="M154 0 L154 410 L404 410 L404 482 L76 482 L76 0 L154 0 Z " />
<glyph glyph-name="afii10069" unicode="&#x434;" horiz-adv-x="585" d="M94 -119 L94 0 L480 0 L480 -119 L547 -119 L550 62 L484 62 L484 482 L165 482 L130 238 C117 143 110 65 40 62 L25 62 C25 62 24 62 24 62 L26 -119 L94 -119 Z M410 62 L140 62 C177 81 193 121 204 221 L229 416 L410 416 L410 62 Z " />
<glyph glyph-name="afii10070" unicode="&#x435;" horiz-adv-x="554" d="M292 493 C160 493 50 406 45 254 C40 90 153 -11 313 -11 C372 -11 433 3 490 30 L478 89 C422 66 370 54 315 54 C206 54 118 122 123 233 L506 233 C533 392 456 492 292 493 L292 493 Z M292 431 C378 431 445 384 440 293 L126 293 C139 380 204 431 292 431 L292 431 Z " />
<glyph glyph-name="afii10072" unicode="&#x436;" horiz-adv-x="749" d="M412 280 L412 483 L337 483 L337 280 C181 280 124 356 127 482 L55 482 C51 376 85 286 186 248 L26 10 L26 0 L106 0 L253 224 C271 220 290 214 337 214 L337 0 L412 0 L412 214 C458 214 479 220 497 224 L644 0 L724 0 L724 10 L563 248 C662 285 700 377 696 482 L624 482 C627 356 567 280 412 280 L412 280 Z " />
<glyph glyph-name="afii10073" unicode="&#x437;" horiz-adv-x="484" d="M59 391 C99 414 166 427 212 427 C268 427 329 415 329 353 C329 287 264 283 208 282 C187 282 167 283 148 283 L148 221 C168 221 190 221 212 221 C278 221 359 213 359 141 C359 78 293 57 226 56 C161 56 79 80 42 112 L38 43 C85 11 162 -11 237 -11 C338 -11 440 31 440 137 C440 202 398 244 334 258 C381 268 411 314 411 362 C411 461 315 491 225 491 C165 492 98 477 55 453 L59 391 L59 391 Z " />
<glyph glyph-name="afii10074" unicode="&#x438;" horiz-adv-x="576" d="M432 344 L424 161 L424 0 L500 0 L500 483 L474 483 L146 144 L152 311 L152 482 L76 482 L76 0 L99 0 L432 344 Z " />
<glyph glyph-name="afii10075" unicode="&#x439;" horiz-adv-x="576" d="M156 681 C165 601 227 552 303 552 C383 552 441 603 450 681 C434 683 413 686 397 687 C388 638 349 613 302 613 C251 614 217 640 210 687 L156 681 Z M99 0 L76 0 L76 482 L152 482 L152 311 L146 144 L474 483 L500 483 L500 0 L424 0 L424 161 L432 344 L99 0 Z " />
<glyph glyph-name="afii10076" unicode="&#x43a;" horiz-adv-x="534" d="M155 278 L155 483 L76 483 L76 0 L155 0 L155 214 L218 214 C238 214 259 215 277 219 L423 0 L507 0 L507 9 L346 243 C451 283 485 375 483 483 L409 483 C409 352 349 278 219 278 L155 278 Z " />
<glyph glyph-name="afii10077" unicode="&#x43b;" horiz-adv-x="583" d="M430 412 L430 0 L507 0 L507 482 C392 482 279 482 164 482 L127 163 C118 87 108 45 19 59 L17 0 C156 -20 190 26 203 159 L231 412 L430 412 Z " />
<glyph glyph-name="afii10078" unicode="&#x43c;" horiz-adv-x="640" d="M323 120 L489 317 L489 2 C514 2 539 2 564 2 C564 151 564 346 564 482 L539 482 L320 218 L102 482 L76 482 C76 346 76 151 76 2 C102 2 127 2 152 2 L152 317 L315 120 L323 120 Z " />
<glyph glyph-name="afii10079" unicode="&#x43d;" horiz-adv-x="578" d="M426 482 L426 283 L153 283 L153 482 L76 482 L76 0 L153 0 L153 215 L426 215 L426 0 L502 0 L502 482 L426 482 Z " />
<glyph glyph-name="afii10080" unicode="&#x43e;" horiz-adv-x="598" d="M553 242 C553 577 45 577 45 242 C45 -93 553 -91 553 242 L553 242 Z M124 242 C124 487 475 487 475 242 C475 -4 124 -4 124 242 L124 242 Z " />
<glyph glyph-name="afii10081" unicode="&#x43f;" horiz-adv-x="577" d="M76 482 L76 0 L155 0 L155 412 L423 412 L423 0 L501 0 L501 482 L76 482 Z " />
<glyph glyph-name="afii10082" unicode="&#x440;" horiz-adv-x="601" d="M161 402 C164 478 112 496 36 483 L37 425 C101 433 94 383 94 321 L94 -248 L172 -248 L172 44 C344 -72 555 29 555 244 C555 382 478 495 337 495 C268 495 206 475 161 402 L161 402 Z M170 264 C173 347 230 424 322 424 C430 424 475 340 475 244 C475 67 301 13 170 115 L170 264 Z " />
<glyph glyph-name="afii10083" unicode="&#x441;" horiz-adv-x="566" d="M523 335 C493 440 398 493 300 494 C174 495 44 411 44 243 C44 77 172 -8 298 -8 C399 -8 499 48 528 162 L452 162 C426 94 363 61 299 61 C212 61 123 124 123 243 C123 363 215 424 303 424 C364 424 422 395 448 335 L523 335 Z " />
<glyph glyph-name="afii10084" unicode="&#x442;" horiz-adv-x="460" d="M268 1 L268 413 L438 413 L438 482 L22 482 L22 413 L192 413 L192 1 L268 1 Z " />
<glyph glyph-name="afii10085" unicode="&#x443;" horiz-adv-x="547" d="M518 473 C518 476 518 479 518 481 L439 481 L279 88 C279 88 278 88 278 88 L103 481 L19 481 C19 479 19 476 19 473 L240 -4 L212 -72 C180 -154 142 -210 50 -169 L39 -228 C195 -298 252 -164 306 -34 L518 473 Z " />
<glyph glyph-name="afii10086" unicode="&#x444;" horiz-adv-x="855" d="M467 -245 L467 45 C641 -67 807 21 807 242 C807 464 641 552 467 442 L467 728 L390 728 L390 442 C215 552 48 464 48 242 C48 21 215 -67 390 45 L390 -245 L467 -245 Z M729 242 C729 76 594 17 466 117 L466 369 C594 469 729 416 729 242 L729 242 Z M127 242 C127 410 263 469 392 369 L392 117 C263 17 127 73 127 242 L127 242 Z " />
<glyph glyph-name="afii10087" unicode="&#x445;" horiz-adv-x="492" d="M247 208 L323 99 L396 0 L472 0 L472 9 L292 252 L457 473 L457 482 L379 482 L316 399 L250 301 L248 301 L187 395 L124 482 L43 482 L43 474 L202 256 L16 9 L16 0 L94 0 L172 102 L245 208 L247 208 Z " />
<glyph glyph-name="afii10088" unicode="&#x446;" horiz-adv-x="568" d="M463 0 L463 -117 L529 -117 L533 63 L469 63 L469 482 L394 482 L394 70 L152 70 L152 482 L76 482 L76 0 L463 0 Z " />
<glyph glyph-name="afii10089" unicode="&#x447;" horiz-adv-x="535" d="M120 359 L120 482 L42 482 L42 359 C42 157 229 96 380 180 L380 0 L459 0 L459 482 L382 482 L382 259 C261 171 120 214 120 359 L120 359 Z " />
<glyph glyph-name="afii10090" unicode="&#x448;" horiz-adv-x="798" d="M151 70 L151 482 L76 482 L76 0 C290 0 508 0 722 0 C722 161 722 321 722 482 L647 482 L647 70 L437 70 L437 482 L361 482 L361 70 L151 70 Z " />
<glyph glyph-name="afii10091" unicode="&#x449;" horiz-adv-x="823" d="M153 70 L153 482 L76 482 L76 0 C291 0 504 0 718 0 L718 -118 L785 -118 L788 63 L723 63 L723 482 L648 482 L648 70 L438 70 L438 482 L363 482 L363 70 L153 70 Z " />
<glyph glyph-name="afii10092" unicode="&#x44a;" horiz-adv-x="568" d="M327 0 C432 0 537 41 537 163 C537 285 433 324 327 324 L215 324 L215 482 C151 482 86 482 22 482 L22 416 L139 416 L139 0 L327 0 Z M326 261 C394 261 461 236 461 163 C461 89 394 63 326 63 L215 63 L215 261 L326 261 Z " />
<glyph glyph-name="afii10093" unicode="&#x44b;" horiz-adv-x="720" d="M264 0 C369 0 474 41 474 163 C474 285 370 324 264 324 L152 324 L152 482 L76 482 L76 0 L264 0 Z M263 263 C330 263 398 236 398 163 C398 89 332 61 263 61 L152 61 L152 263 L263 263 Z M570 0 L644 0 L644 482 L570 482 L570 0 Z " />
<glyph glyph-name="afii10094" unicode="&#x44c;" horiz-adv-x="505" d="M264 0 C369 0 474 41 474 163 C474 285 370 324 264 324 L152 324 L152 482 L76 482 C76 321 76 161 76 0 L264 0 Z M263 262 C332 262 398 236 398 163 C398 89 332 64 263 64 L152 64 L152 262 L263 262 Z " />
<glyph glyph-name="afii10095" unicode="&#x44d;" horiz-adv-x="569" d="M446 273 L218 273 L218 208 L446 208 C437 108 357 60 272 59 C206 59 137 94 113 166 L37 164 C64 47 167 -11 271 -10 C397 -10 524 75 524 241 C524 408 395 493 268 493 C170 493 72 441 44 333 L119 331 C144 393 205 422 268 423 C352 423 437 375 446 273 L446 273 Z " />
<glyph glyph-name="afii10096" unicode="&#x44e;" horiz-adv-x="803" d="M758 241 C758 407 634 492 507 492 C390 493 274 423 255 283 L152 283 L152 482 L76 482 L76 0 L152 0 L152 214 L252 214 C264 64 385 -11 505 -10 C632 -9 758 74 758 241 L758 241 Z M328 241 C328 363 417 423 506 422 C593 421 679 360 679 241 C679 121 593 60 506 60 C417 59 328 120 328 241 L328 241 Z " />
<glyph glyph-name="afii10097" unicode="&#x44f;" horiz-adv-x="517" d="M33 8 L33 0 L116 0 L249 167 L362 167 L362 0 C389 0 414 0 441 0 L441 482 C386 482 274 482 220 482 C121 482 53 414 53 325 C53 253 105 197 171 181 L33 8 Z M240 232 C179 232 132 266 132 324 C132 382 178 418 240 418 L362 418 L362 232 L240 232 Z " />
</font>
</svg>
